<svg xmlns="http://www.w3.org/2000/svg" viewBox="0 0 385.7 199.6"><path fill="#FF4949" d="M88.2 128.6h-4.5V65.9 38.4C72.4 54.6 60.3 71.9 48.3 89.2c-3.6 5.1-7.2 10.3-10.8 15.4-1.8 2.6-3.6 5.1-5.3 7.7-.9 1.3-1.8 2.5-2.7 3.8l-1.2 1.8-.3.4c-.1.1-.1.2-.2.4-.5.9-.8 1.9-.8 2.8-.1 1 .2 2 .6 3 .4 1 1.1 1.9 1.8 2.5.4.3.8.6 1.2.8.4.2.8.4 1.3.5.5.1.9.2 1.5.2H155.2v4.5H33.1c-.8-.1-1.6-.2-2.4-.4-3.1-.8-5.8-3.2-7.2-6.4-1.3-3.2-1.3-6.8.4-9.8l.3-.6.4-.6 1.3-1.8c.9-1.3 1.8-2.5 2.7-3.8 1.8-2.6 3.6-5.1 5.3-7.7 3.6-5.1 7.2-10.3 10.7-15.4 12.8-18.4 25.6-36.7 37.6-54 .6-.8 1.5-1.4 2.4-1.4 1-.1 1.9.3 2.6 1 .3.3.6.8.7 1.2.1.4.2.9.2 1.4V65.8c.1 37.7.1 62.8.1 62.8z"/><path fill="#FE9B44" d="M92.7 128.6h-4.5V65.9 37.5v-2.7c0-.5 0-.9-.2-1.4-.2-.4-.4-.9-.7-1.2-.7-.7-1.6-1.1-2.6-1-1 0-1.9.6-2.4 1.4-12 17.2-24.8 35.6-37.6 54-3.7 5.1-7.2 10.3-10.8 15.4-1.8 2.6-3.6 5.1-5.3 7.7-.9 1.3-1.8 2.5-2.7 3.8l-1.3 1.8-.4.6-.3.6c-1.7 3-1.8 6.6-.4 9.8 1.4 3.2 4.1 5.6 7.2 6.4.8.2 1.6.3 2.4.4h122.1v4.5H32.8c-1.1-.1-2.3-.3-3.4-.6-4.4-1.2-8.2-4.6-10.1-9-1.9-4.4-1.8-9.5.6-13.7l.5-.8.5-.8 1.3-1.9c.9-1.3 1.8-2.5 2.7-3.8 1.8-2.5 3.6-5.1 5.3-7.7 3.6-5 7.2-10.2 10.8-15.3 13.6-19.5 27.1-38.9 39.9-57.2 1.1-1.6 2.9-2.7 4.9-2.8 1.9-.1 3.9.6 5.2 2 .7.7 1.1 1.5 1.5 2.4.3.9.4 1.8.3 2.7V66c-.1 37.5-.1 62.6-.1 62.6z"/><path fill="#FFE825" d="M97.2 128.6h-4.5V65.9 36.5 31c0-.9-.1-1.9-.3-2.7-.3-.9-.8-1.7-1.5-2.4-1.3-1.3-3.3-2.1-5.2-2-1.9.1-3.8 1.2-4.9 2.8C68.1 45.1 54.5 64.5 41 84c-3.6 5.1-7.2 10.3-10.7 15.4-1.8 2.6-3.6 5.1-5.3 7.7-.9 1.3-1.8 2.5-2.7 3.8l-1.3 1.9-.5.8-.5.8c-2.4 4.2-2.5 9.4-.6 13.7 1.9 4.4 5.7 7.8 10.1 9 1.1.3 2.2.5 3.4.6 1 .1 2.7 0 4.1 0H155.3v4.5H32.7c-1.5-.1-2.9-.3-4.3-.7-5.7-1.6-10.6-5.9-12.9-11.5-1.2-2.8-1.8-5.8-1.6-8.9.1-1.5.3-3 .7-4.5.4-1.5 1-2.9 1.8-4.3.7-1.4 1.7-2.6 2.5-3.9.9-1.3 1.8-2.5 2.7-3.8 1.8-2.5 3.6-5.1 5.3-7.7 3.6-5.1 7.2-10.3 10.7-15.4C51.6 60.8 66 40.3 79.4 21c.2-.3.5-.6.7-.9.2-.3.5-.6.7-.8.6-.5 1.1-1 1.8-1.3.6-.4 1.3-.6 2-.9.3-.1.7-.2 1.1-.2.2 0 .4-.1.5-.1h.5c1.4-.1 2.9.1 4.2.6 1.4.5 2.5 1.3 3.5 2.3 1 1 1.7 2.3 2.2 3.6.4 1.3.5 2.7.5 4.1V66c.1 37.5.1 62.6.1 62.6z"/><path fill="#71DB00" d="M101.7 128.6h-4.5V65.9 35.5v-8.2c0-1.4-.1-2.8-.5-4.1-.5-1.3-1.2-2.6-2.2-3.6-1-1-2.2-1.8-3.5-2.3-1.3-.5-2.8-.8-4.2-.6h-.5c-.2 0-.4.1-.5.1-.4.1-.7.1-1.1.2-.7.3-1.4.5-2 .9-.7.3-1.2.8-1.8 1.3-.3.2-.5.5-.7.8-.2.3-.5.5-.7.9C66 40.3 51.6 60.8 37.3 81.4c-3.6 5.1-7.2 10.3-10.7 15.4-1.8 2.6-3.6 5.1-5.3 7.7-.9 1.3-1.8 2.5-2.7 3.8-.9 1.3-1.8 2.5-2.5 3.9s-1.3 2.8-1.8 4.3c-.4 1.5-.6 3-.7 4.5-.1 3.1.5 6.1 1.6 8.9 2.4 5.6 7.3 9.9 12.9 11.5 1.4.4 2.9.6 4.3.7 1.5.1 2.9 0 4.3 0H155v4.5H36.7c-1.5 0-2.7 0-4.6-.1-1.8-.1-3.5-.4-5.3-.9-1.7-.5-3.4-1.2-5-2.1-1.6-.9-3.1-1.9-4.5-3.2-2.7-2.4-4.9-5.5-6.4-8.8-1.4-3.4-2.2-7.1-2-10.9.1-1.9.4-3.7.9-5.6.5-1.8 1.3-3.6 2.2-5.2l.7-1.2.8-1.1 1.4-2c.9-1.3 1.8-2.5 2.7-3.8 1.8-2.5 3.6-5.1 5.3-7.7 3.6-5.1 7.2-10.3 10.7-15.4C40.8 68.5 47.9 58.2 55 48.1c3.5-5.1 7-10.1 10.5-15 1.9-2.8 3.8-5.5 5.7-8.2 1.1-1.6 2.2-3.3 3.4-4.8.6-.8 1.2-1.5 1.8-2.1.6-.7 1.2-1.3 1.8-1.9.3-.3.6-.5.9-.8.3-.3.6-.5 1-.8.7-.4 1.4-.9 2.2-1.2.8-.4 1.6-.6 2.4-.8.4-.1.9-.1 1.3-.2.2 0 .4-.1.6-.1h.6c3.5-.1 6.9 1.2 9.4 3.5 1.3 1.1 2.2 2.5 3 3.9.7 1.5 1.1 3 1.3 4.5l.3 2.4.1 1.3.1 1.3c.1 1.8 0 3.6.1 5.4v31.3c.2 37.7.2 62.8.2 62.8z"/><path fill="#4A99F2" d="M106.2 128.6h-4.5V65.9 34.6c0-1.8.1-3.6-.1-5.4l-.1-1.3-.1-1.3c-.1-.8-.2-1.7-.3-2.4-.2-1.6-.7-3.1-1.3-4.5-.8-1.4-1.7-2.8-3-3.9-2.5-2.2-6-3.6-9.4-3.5h-.6c-.2 0-.4.1-.6.1-.4.1-.9.1-1.3.2-.8.2-1.7.4-2.4.8-.8.3-1.5.8-2.2 1.2-.4.2-.6.5-1 .8-.3.3-.7.5-.9.8-.6.6-1.2 1.2-1.8 1.9-.6.7-1.2 1.3-1.8 2.1-1.2 1.5-2.3 3.2-3.4 4.8-1.9 2.7-3.8 5.5-5.7 8.2l-10.5 15C48.1 58.3 41 68.6 33.8 78.9c-3.6 5.1-7.2 10.3-10.7 15.4-1.8 2.6-3.6 5.1-5.3 7.7-.9 1.3-1.8 2.5-2.7 3.8l-1.4 2-.8 1.1-.7 1.2c-.9 1.6-1.6 3.4-2.2 5.2-.5 1.8-.8 3.7-.9 5.6-.2 3.8.6 7.5 2 10.9 1.5 3.4 3.6 6.4 6.4 8.8 1.4 1.2 2.9 2.3 4.5 3.2 1.6.9 3.3 1.6 5 2.1 1.7.5 3.5.8 5.3.9 1.9.1 3.1 0 4.6.1H155.2v4.5H33.5l-1.5-.1c-2.1-.2-4.2-.5-6.2-1.1-2-.6-4-1.4-5.9-2.4-1.9-1-3.7-2.3-5.3-3.7-3.2-2.9-5.8-6.5-7.5-10.4-1.7-4-2.6-8.4-2.4-12.8.1-2.2.4-4.4 1-6.6.6-2.2 1.5-4.2 2.5-6.2l.8-1.4.9-1.3 1.4-2c.9-1.3 1.8-2.5 2.7-3.8 1.8-2.5 3.6-5.1 5.3-7.7 3.6-5.1 7.1-10.3 10.7-15.4 7.2-10.3 14.3-20.6 21.4-30.7 3.5-5.1 7-10.1 10.5-15l6.3-9c.7-1 1.4-2 2.1-3.1.4-.5.7-1 1.1-1.5l1.1-1.4c.4-.4.7-1 1.1-1.3l1.2-1.1c.4-.3.8-.8 1.2-1l1.1-.9c.4-.3.8-.5 1.2-.8.4-.2.8-.5 1.2-.7.9-.4 1.7-.9 2.7-1.1.8-.6 1.8-.8 2.7-1 .5-.1 1-.1 1.5-.1.2 0 .5 0 .7-.1h.8c4 .1 8 1.6 11.1 4 1.6 1.2 2.8 2.7 3.8 4.2.9 1.6 1.7 3.2 2.2 4.9.1.5.3.8.4 1.3l.3 1.5.3 1.5.1 1.6.1 1.6v100.3z"/><path fill="#A74BF5" d="M110.7 128.6h-4.5V65.9 33.6v-5.1l-.1-1.6-.1-1.6-.3-1.5-.3-1.5c-.1-.5-.3-.9-.4-1.3-.5-1.8-1.2-3.3-2.2-4.9-1.1-1.5-2.3-3-3.8-4.2-3.1-2.4-7-3.9-11.1-4h-.8c-.3 0-.5 0-.7.1-.5 0-1 .1-1.5.1-1 .2-2 .4-2.9.7-1 .2-1.8.7-2.7 1.1-.4.2-.8.5-1.2.7-.4.3-.8.5-1.2.8l-1.1.9c-.4.3-.8.7-1.2 1l-1.2 1.1c-.4.3-.8.9-1.1 1.3l-1.1 1.4c-.4.5-.7 1-1.1 1.5-.7 1-1.4 2-2.1 3.1l-6.3 9-10.5 15c-7 10.1-14.2 20.4-21.4 30.7-3.6 5.1-7.2 10.3-10.7 15.4-1.8 2.6-3.6 5.1-5.3 7.7-.9 1.3-1.8 2.5-2.7 3.8l-1.4 2-.9 1.3L8 108c-1.1 1.9-1.9 4-2.5 6.2-.6 2.2-.9 4.4-1 6.6-.2 4.4.7 8.8 2.4 12.8s4.3 7.6 7.5 10.4c1.6 1.4 3.4 2.7 5.3 3.7s3.9 1.8 5.9 2.4c2.1.6 4.1.9 6.2 1.1l1.5.1H155v4.5H33.3l-1.8-.1c-2.4-.2-4.8-.6-7.2-1.2-2.4-.7-4.7-1.6-6.9-2.8-2.2-1.2-4.2-2.7-6.1-4.3-3.7-3.3-6.7-7.4-8.7-12-1.9-4.6-3-9.7-2.7-14.8.1-2.6.5-5.1 1.2-7.6s1.7-4.9 2.9-7.1l1-1.6 1-1.5 1.4-2.1c.9-1.3 1.8-2.5 2.7-3.8 1.8-2.5 3.6-5.1 5.3-7.7 3.6-5.1 7.1-10.3 10.7-15.4C33.4 63.3 40.6 53.1 47.6 43c3.5-5.1 7-10.1 10.5-15 2.3-3.3 4.6-6.6 6.9-9.8.9-1.2 1.7-2.4 2.6-3.7.4-.6.8-1.2 1.3-1.8l1.4-1.6.7-.8.3-.4.4-.3L73 8.3c.5-.4 1-.8 1.4-1.1l1.4-.9c.5-.3 1-.5 1.4-.7.5-.2.9-.5 1.5-.7 1-.4 2-.8 3.1-1 1.1-.3 2.2-.4 3.3-.6.6-.1 1.1-.1 1.7-.1h.9l.9.1c2.3.1 4.6.6 6.7 1.3 2.2.8 4.2 1.9 6 3.2 1.8 1.3 3.3 2.9 4.7 4.5l.9 1.3.4.6.4.7.7 1.3c.2.4.4 1 .6 1.4l.3.7.2.4c0 .1.1.3.1.4l.4 1.7c.1.6.3 1.1.4 1.7l.2 2 .2 2v39.4c-.1 37.6-.1 62.7-.1 62.7z"/><path fill="#FF4949" d="M83.7 155.5h4.5v44.1h-4.5z"/><path fill="#FE9B44" d="M88.2 155.5h4.5v44.1h-4.5z"/><path fill="#FFE825" d="M92.7 155.5h4.5v44.1h-4.5z"/><path fill="#71DB00" d="M97.2 155.5h4.5v44.1h-4.5z"/><path fill="#4A99F2" d="M101.7 155.5h4.5v44.1h-4.5z"/><path fill="#A74BF5" d="M106.2 155.5h4.5v44.1h-4.5z"/><g><path fill="#FF4949" d="M154.6 128.5h38.1v4.5h-38.1z"/><path fill="#FE9B44" d="M154.6 133h38.1v4.5h-38.1z"/><path fill="#FFE825" d="M154.6 137.5h38.1v4.5h-38.1z"/><path fill="#71DB00" d="M154.6 142h38.1v4.5h-38.1z"/><path fill="#4A99F2" d="M154.6 146.5h38.1v4.5h-38.1z"/><path fill="#A74BF5" d="M154.6 151h38.1v4.5h-38.1z"/></g><linearGradient id="a" gradientUnits="userSpaceOnUse" x1="97.185" y1="179.148" x2="97.185" y2="155.607"><stop offset="0" stop-opacity="0"/><stop offset="1"/></linearGradient><path opacity=".6" fill="url(#a)" d="M83.7 155.6h27v23.5h-27z"/><linearGradient id="b" gradientUnits="userSpaceOnUse" x1="97.185" y1="103.847" x2="97.185" y2="80.305" gradientTransform="matrix(1 0 0 -1 0 209.453)"><stop offset="0" stop-opacity="0"/><stop offset="1"/></linearGradient><path opacity=".6" fill="url(#b)" d="M83.7 105.6h27v23.5h-27z"/><g><linearGradient id="c" gradientUnits="userSpaceOnUse" x1="97.857" y1="98.199" x2="97.857" y2="73.657" gradientTransform="rotate(-90 159.675 80.224)"><stop offset="0" stop-opacity="0"/><stop offset="1"/></linearGradient><path opacity=".7" fill="url(#c)" d="M153.1 128.5h24.5v27h-24.5z"/><linearGradient id="d" gradientUnits="userSpaceOnUse" x1="97.857" y1="61.199" x2="97.857" y2="36.657" gradientTransform="matrix(0 -1 -1 0 169.307 239.898)"><stop offset="0" stop-opacity="0"/><stop offset="1"/></linearGradient><path opacity=".7" fill="url(#d)" d="M108.1 128.5h24.5v27h-24.5z"/><path fill="#FF4949" d="M147.6 19.7l-3.7-3.7s.4-.4 1.2-1.1c.8-.8 2-1.8 3.7-3.2 1.7-1.4 3.9-2.9 6.6-4.5 2.8-1.6 6.2-3.2 10.1-4.5 3.9-1.3 8.5-2.2 13.2-2.5 2.4-.2 4.8-.2 7.4 0 2.6.1 5.3.5 8.1 1.1 5.6 1.2 11.5 3.5 16.9 7 2.7 1.7 5.3 3.7 7.7 5.9 2.4 2.2 4.7 4.7 6.8 7.4 4.2 5.4 7.7 12.3 9.5 19.7.9 3.7 1.4 7.5 1.5 11.3.1 2.1 0 3.2 0 4.7v88.8c-.1 4.4-.6 9-1.9 13.6-1.2 4.5-3.1 9-5.5 13-2.4 4.1-5.3 7.6-8.5 10.9-3.2 3.2-6.8 6.1-10.8 8.5-4 2.4-8.5 4.3-13 5.6-4.6 1.3-9.2 1.8-13.6 1.9-4.4.1-9-.4-13.5-1.4-4.5-1-8.9-2.7-13-4.9s-7.7-4.9-11-7.8c-3.2-2.9-6.1-6.2-8.6-9.8-2.5-3.6-4.6-7.7-6.1-11.9s-2.4-8.5-2.9-12.7c-.1-1.1-.2-2.1-.2-3.1s-.1-2.1-.1-3v-4.5-17.6-32.2-27.2-5.9-2.8c0-1.2 0-2.4.1-3.6.3-4.8 1.2-9.3 2.5-13.3s2.9-7.4 4.5-10.1c1.6-2.8 3.2-5 4.5-6.6 1.3-1.7 2.4-2.9 3.2-3.7.8-.8 1.1-1.2 1.1-1.2l3.8 3.4s-.4.4-1 1.1c-.7.7-1.7 1.8-2.9 3.3-1.2 1.5-2.7 3.5-4.1 6-1.5 2.5-2.9 5.5-4.1 9.1-1.2 3.6-2 7.6-2.2 12-.1 1.1-.1 2.2-.1 3.3V144.7c0 .9 0 1.9.1 2.8.1.9.1 1.9.2 2.8.4 3.8 1.2 7.7 2.6 11.5 1.4 3.8 3.2 7.4 5.5 10.7 2.3 3.3 4.9 6.3 7.8 8.9 2.9 2.7 6.3 5.1 9.9 7.1 3.7 2 7.6 3.5 11.7 4.4 4.1.9 8.2 1.3 12.2 1.3 4.1-.1 8.3-.6 12.4-1.7s8.1-2.8 11.7-5c3.7-2.2 6.9-4.8 9.8-7.7 2.9-3 5.5-6.2 7.7-9.9s3.9-7.6 4.9-11.7c1.1-4.1 1.6-8.3 1.7-12.3v-5.2-4.9-38.4-35.9-4.3-4.5c-.1-3.4-.5-6.9-1.4-10.2-1.6-6.7-4.7-12.8-8.6-17.8-1.9-2.5-4-4.7-6.2-6.7s-4.5-3.8-7-5.3c-4.9-3.1-10.2-5.2-15.3-6.3-2.5-.5-5-.9-7.4-1-2.4-.2-4.6-.1-6.8 0-4.4.3-8.4 1.1-12 2.2-3.6 1.1-6.6 2.6-9.1 4.1-2.5 1.5-4.5 2.9-6 4.1-1.5 1.2-2.6 2.2-3.3 2.9-.3.6-.7 1-.7 1z"/><path fill="#FE9B44" d="M151.3 23.3l-3.7-3.7s.4-.4 1.1-1c.7-.7 1.8-1.7 3.3-2.9 1.5-1.2 3.5-2.7 6-4.1 2.5-1.5 5.5-2.9 9.1-4.1 3.6-1.2 7.6-2 12-2.2 2.2-.1 4.4-.2 6.8 0 2.4.1 4.8.5 7.4 1 5.1 1.1 10.4 3.1 15.3 6.3 2.4 1.6 4.8 3.3 7 5.3s4.3 4.2 6.2 6.7c3.8 4.9 7 11.1 8.6 17.8.8 3.3 1.2 6.8 1.4 10.2.1 1.9 0 3.1 0 4.5v88.7c-.1 4-.6 8.2-1.7 12.3-1.1 4.1-2.8 8.1-4.9 11.7-2.2 3.7-4.8 6.9-7.7 9.9-2.9 2.9-6.2 5.5-9.8 7.7-3.6 2.2-7.6 3.9-11.7 5s-8.3 1.6-12.4 1.7c-4 .1-8.2-.3-12.2-1.3-4.1-.9-8-2.4-11.7-4.4-3.7-2-7-4.4-9.9-7.1-2.9-2.7-5.5-5.6-7.8-8.9-2.3-3.3-4.2-6.9-5.5-10.7-1.4-3.8-2.2-7.7-2.6-11.5-.1-1-.1-1.9-.2-2.8 0-.9-.1-1.9-.1-2.8v-4.5-17.6-32.2-27.2-5.9-2.8c0-1.1 0-2.2.1-3.3.3-4.4 1.1-8.4 2.2-12 1.2-3.6 2.6-6.6 4.1-9.1 1.5-2.5 2.9-4.5 4.1-6 1.2-1.5 2.2-2.6 2.9-3.3.7-.7 1-1.1 1-1.1l3.3 3.7s-.3.3-.9 1c-.6.6-1.5 1.6-2.6 3-2.2 2.7-5.2 7.1-7.3 13.4-1 3.2-1.8 6.8-2 10.7-.1 1-.1 2-.1 3V144.6c0 .8 0 1.7.1 2.5.1.9.1 1.7.2 2.6.4 3.4 1.1 6.9 2.3 10.2 1.2 3.3 2.9 6.6 4.9 9.5 2.1 3 4.4 5.6 7.1 8.1 2.7 2.4 5.6 4.6 8.9 6.4 3.3 1.7 6.8 3.1 10.4 3.9 3.6.8 7.3 1.2 11 1.1 3.7-.1 7.4-.5 11.1-1.5 3.7-1 7.2-2.5 10.4-4.4 3.3-1.9 6.2-4.3 8.8-6.9 2.6-2.7 5-5.6 6.9-8.9 1.9-3.3 3.4-6.8 4.4-10.4 1-3.6 1.5-7.4 1.5-11v-5.1-4.9-38.4-35.9-4.3-4.4c-.1-3.1-.5-6.2-1.2-9.2-1.4-6-4.2-11.4-7.6-15.8-3.4-4.4-7.4-8.1-11.8-10.8-4.4-2.8-9-4.6-13.6-5.6-2.3-.5-4.5-.8-6.6-.9-2.1-.1-4.2-.1-6.1 0-3.9.2-7.5 1-10.7 2-6.4 2.1-10.7 5.1-13.5 7.3-1.4 1.1-2.4 2-3 2.6-.7.6-1 .9-1 .9z"/><path fill="#FFE825" d="M154.9 27l-3.7-3.7s.3-.3 1-.9c.6-.6 1.6-1.5 3-2.6 2.7-2.2 7.1-5.2 13.5-7.3 3.2-1 6.8-1.8 10.7-2 2-.1 4-.1 6.1 0 2.1.1 4.3.4 6.6.9 4.5.9 9.2 2.8 13.6 5.6s8.4 6.4 11.8 10.8c3.4 4.4 6.2 9.9 7.6 15.8.7 3 1.1 6.1 1.2 9.2v93c-.1 3.7-.5 7.4-1.5 11-1 3.6-2.5 7.2-4.4 10.4-1.9 3.3-4.3 6.2-6.9 8.9-2.7 2.6-5.6 5-8.8 6.9-3.2 1.9-6.8 3.5-10.4 4.4-3.6 1-7.4 1.5-11.1 1.5-3.7.1-7.4-.3-11-1.1-3.6-.8-7.2-2.2-10.4-3.9-3.3-1.8-6.2-3.9-8.9-6.4-2.6-2.4-5-5.1-7.1-8.1-2-2.9-3.7-6.2-4.9-9.5-1.2-3.4-2-6.8-2.3-10.2-.1-.9-.1-1.7-.2-2.6 0-.8 0-1.7-.1-2.5v-4.5-17.6-32.2-27.2-5.9-2.8c0-1 0-2 .1-3 .2-3.9 1-7.6 2-10.7 2.1-6.4 5.1-10.7 7.3-13.4 1.1-1.4 2-2.4 2.6-3 .6-.6.9-1 .9-1l3.7 3.7s-.3.3-.8.9c-.6.6-1.4 1.5-2.3 2.7-1.9 2.4-4.6 6.2-6.4 11.8-.9 2.8-1.5 5.9-1.7 9.4-.1 1.7-.1 3.6-.1 5.5v82.9c0 3-.1 6 .2 9.1.3 3 1 6.1 2 9 1.1 2.9 2.5 5.7 4.3 8.3 1.8 2.6 3.9 5 6.3 7.2s5 4.1 7.8 5.6c2.9 1.5 5.9 2.7 9.1 3.4 3.2.7 6.5 1.1 9.8 1 3.3-.1 6.6-.5 9.8-1.3 3.2-.8 6.3-2.2 9.1-3.9 2.9-1.7 5.5-3.8 7.8-6.1 2.3-2.4 4.4-5 6.1-7.8 1.7-2.9 3-5.9 3.9-9.1.9-3.2 1.3-6.5 1.4-9.8V136 97.6 61.7v-8.4c-.1-2.8-.4-5.5-1.1-8.1-1.3-5.2-3.7-10-6.7-13.9-6.1-7.9-14.4-12.9-22.3-14.5-2-.4-3.9-.7-5.8-.8-1.9-.1-3.7-.1-5.5 0-3.5.2-6.7.9-9.4 1.8-5.5 1.8-9.4 4.5-11.8 6.4-1.2 1-2.1 1.8-2.7 2.3-.7.2-1 .5-1 .5z"/><path fill="#71DB00" d="M158.6 30.7l-3.7-3.7s.3-.3.9-.8c.6-.6 1.5-1.4 2.7-2.3 2.4-1.9 6.3-4.6 11.8-6.4 2.8-.9 5.9-1.5 9.4-1.8 1.7-.1 3.6-.1 5.5 0s3.8.4 5.8.8c7.9 1.6 16.3 6.6 22.3 14.5 3 3.9 5.5 8.7 6.7 13.9.6 2.6 1 5.3 1.1 8.1.1 2.8 0 5.6 0 8.4v84.1c-.1 3.3-.5 6.6-1.4 9.8-.8 3.2-2.2 6.3-3.9 9.1-1.7 2.9-3.8 5.5-6.1 7.8-2.4 2.3-5 4.4-7.8 6.1-2.9 1.7-5.9 3-9.1 3.9-3.2.9-6.5 1.3-9.8 1.3-3.3.1-6.6-.3-9.8-1-3.2-.7-6.3-1.9-9.1-3.4s-5.5-3.5-7.8-5.6c-2.4-2.2-4.5-4.6-6.3-7.2-1.8-2.6-3.2-5.4-4.3-8.3-1.1-2.9-1.7-6-2-9-.3-3-.2-6.1-.2-9.1v-17.6-32.2-27.2V57c0-1.9 0-3.7.1-5.5.2-3.5.8-6.7 1.7-9.4 1.8-5.5 4.5-9.4 6.4-11.8 1-1.2 1.8-2.1 2.3-2.7.6-.6.8-.9.8-.9l3.8 4s-.3.3-.7.8c-.5.5-1.2 1.3-2.1 2.4-1.7 2.1-4 5.4-5.5 10.1-.8 2.4-1.3 5.1-1.5 8.2-.1.8 0 1.5-.1 2.4V146.8c.1.7.1 1.3.2 2 .3 2.7.8 5.3 1.8 7.8.9 2.5 2.1 4.9 3.7 7.2 1.6 2.2 3.4 4.4 5.5 6.3 2.1 1.9 4.4 3.5 6.8 4.9 2.5 1.3 5.1 2.3 7.8 2.9 2.7.6 5.6.9 8.5.9 2.9 0 5.8-.4 8.5-1.2 5.5-1.4 10.5-4.5 14.6-8.7 2-2.1 3.9-4.4 5.3-6.8 1.4-2.5 2.6-5.1 3.3-7.8.8-2.7 1.1-5.6 1.2-8.5v-9.7-38.4-35.9-4.3-4c-.1-2.4-.4-4.8-.9-7.1-1.1-4.5-3.1-8.5-5.8-11.9-2.6-3.5-5.8-6.3-9.1-8.4-3.3-2.1-6.8-3.5-10.2-4.2-1.7-.4-3.4-.6-5-.7-1.7-.1-3.3-.1-4.8 0-3.1.2-5.8.7-8.2 1.5-4.7 1.5-8 3.8-10.1 5.5-1.1.8-1.8 1.6-2.4 2-.5.2-.8.5-.8.5z"/><path fill="#4A99F2" d="M162.3 34.3l-3.7-3.7s.3-.3.8-.7c.5-.5 1.3-1.2 2.4-2 2.1-1.7 5.4-4 10.1-5.5 2.4-.8 5.1-1.3 8.2-1.5 1.5-.1 3.2-.1 4.8 0 1.7.1 3.3.3 5 .7 3.4.7 6.9 2.1 10.2 4.2 3.3 2.1 6.5 5 9.1 8.4 2.7 3.4 4.7 7.5 5.8 11.9.5 2.2.8 4.6.9 7.1v92.3c0 2.9-.4 5.8-1.2 8.5-.7 2.8-1.9 5.4-3.3 7.8-1.5 2.5-3.3 4.7-5.3 6.8-4.2 4.1-9.1 7.2-14.6 8.7-2.7.8-5.6 1.1-8.5 1.2-2.9.1-5.8-.2-8.5-.9-2.8-.6-5.4-1.6-7.8-2.9-2.4-1.3-4.7-3-6.8-4.9-2.1-1.9-4-4-5.5-6.3-1.6-2.2-2.8-4.7-3.7-7.2-.9-2.5-1.5-5.1-1.8-7.8-.1-.7-.1-1.3-.2-2v-2-4.5-17.6-32.2V63v-5.9-2.8c0-.8 0-1.6.1-2.4.2-3.1.7-5.8 1.5-8.2 1.5-4.7 3.8-8 5.5-10.1.8-1.1 1.6-1.8 2.1-2.4.5-.5.7-.8.7-.8l3.7 3.9s-.2.2-.6.7c-.4.4-1 1.1-1.8 2-1.5 1.8-3.3 4.6-4.6 8.5-.6 2-1.1 4.2-1.3 6.9-.1.7 0 1.3-.1 2V146.4c.1.6.1 1.2.1 1.7.2 2.3.7 4.5 1.5 6.5.8 2.1 1.8 4.1 3.1 6 1.3 1.9 2.9 3.7 4.7 5.4 1.8 1.6 3.7 3 5.8 4.1 2.1 1.1 4.2 1.9 6.5 2.4s4.8.8 7.3.7c2.5 0 4.9-.3 7.2-1 4.6-1.2 8.7-3.7 12.3-7.3 1.7-1.8 3.3-3.8 4.5-5.8 1.2-2.1 2.2-4.2 2.8-6.5.6-2.3 1-4.7 1-7.3v-9.7-38.4-35.9V57v-3.9c-.1-2.1-.3-4.1-.8-6-.9-3.8-2.6-7.1-4.8-10-1.1-1.5-2.4-2.8-3.7-4-1.3-1.2-2.7-2.3-4.1-3.2-2.8-1.8-5.6-2.9-8.5-3.5-1.4-.3-2.9-.5-4.3-.6-1.4-.1-2.8-.1-4.2 0-2.6.2-4.9.6-6.9 1.3-3.9 1.3-6.7 3.2-8.5 4.6-.9.7-1.6 1.3-2 1.8-.4.6-.6.8-.6.8z"/><path fill="#A74BF5" d="M166 38l-3.7-3.7s.2-.2.7-.6c.4-.4 1.1-1 2-1.8 1.8-1.4 4.6-3.3 8.5-4.6 2-.6 4.3-1.1 6.9-1.3 1.3-.1 2.7-.1 4.2 0 1.4.1 2.8.3 4.3.6 2.9.6 5.7 1.7 8.5 3.5 1.4.9 2.8 1.9 4.1 3.2 1.3 1.2 2.6 2.6 3.7 4 2.3 2.9 3.9 6.2 4.8 10 .5 1.9.7 3.9.8 6v92.2c0 2.5-.4 5-1 7.3s-1.6 4.5-2.8 6.5c-1.2 2-2.8 4-4.5 5.8-3.6 3.6-7.7 6.1-12.3 7.3-2.3.6-4.7.9-7.2 1-2.5.1-5-.2-7.3-.7-2.3-.5-4.5-1.4-6.5-2.4-2-1.1-4-2.5-5.8-4.1-1.8-1.7-3.4-3.5-4.7-5.4-1.3-1.9-2.3-3.9-3.1-6-.8-2.1-1.2-4.3-1.5-6.5-.1-.6-.1-1.1-.1-1.7v-1.8-4.5-17.6-32.2-27.2-5.9-2.8c0-.7 0-1.4.1-2 .2-2.6.6-4.9 1.3-6.9 1.3-3.9 3.2-6.7 4.6-8.5.7-.9 1.3-1.6 1.8-2 .4-.4.6-.7.6-.7L166 38s-.2.2-.5.6c-.4.4-.9.9-1.5 1.7-1.2 1.5-2.7 3.7-3.7 6.8-.5 1.6-.9 3.4-1 5.6-.1.5 0 1.1-.1 1.7V146.1c0 .5 0 1 .1 1.4.2 1.9.6 3.6 1.2 5.3.6 1.7 1.4 3.2 2.5 4.8 1.1 1.5 2.4 3.1 4 4.5 1.5 1.4 3.1 2.5 4.7 3.4 1.6.9 3.3 1.5 5.2 1.9 1.9.4 3.9.7 6.1.6 2.1 0 4.1-.3 5.9-.8 1.8-.5 3.5-1.2 5.2-2.2 1.6-1 3.3-2.3 4.8-3.8s2.8-3.1 3.7-4.8c1-1.7 1.7-3.4 2.2-5.2.5-1.9.8-3.9.8-6v-9.6-38.4-35.9V57v-3.7c-.1-1.8-.3-3.4-.6-4.9-.7-3-2.1-5.6-3.9-8.1-.9-1.2-2-2.4-3.1-3.4s-2.3-1.9-3.4-2.6c-2.3-1.4-4.5-2.3-6.8-2.8-1.2-.2-2.3-.4-3.5-.5-1.2-.1-2.4-.1-3.5 0-2.2.1-4.1.5-5.6 1-3.1 1-5.3 2.5-6.8 3.7-.8.6-1.3 1.1-1.7 1.5-.6.6-.7.8-.7.8z"/></g><g><path fill="#FF4949" d="M184.6 128.5h117.1v4.5H184.6z"/><path fill="#FE9B44" d="M184.6 133h117.1v4.5H184.6z"/><path fill="#FFE825" d="M184.6 137.5h117.1v4.5H184.6z"/><path fill="#71DB00" d="M184.6 142h117.1v4.5H184.6z"/><path fill="#4A99F2" d="M184.6 146.5h117.1v4.5H184.6z"/><path fill="#A74BF5" d="M184.6 151h117.1v4.5H184.6z"/></g><g><linearGradient id="e" gradientUnits="userSpaceOnUse" x1="97.857" y1="153.29" x2="97.857" y2="108.248" gradientTransform="matrix(0 -1 -1 0 387.898 239.898)"><stop offset="0" stop-opacity="0"/><stop offset="1"/></linearGradient><path opacity=".8" fill="url(#e)" d="M234.6 128.5h45v27h-45z"/><path fill="#FF4949" d="M338.2 199.6h-4.5V38.5c-12.5 18-25 35.9-36.8 52.8-6.6 9.4-12.9 18.5-18.9 27.1-1 1.6-1.2 3.2-.8 4.9.4 1.7 1.5 3.2 2.7 4.1.6.4 1.3.8 2 1 .4.1.7.2 1.1.2.2 0 .4.1.6 0h50.3v4.5h-50.5c-.3 0-.6 0-.9-.1-.6-.1-1.2-.2-1.8-.4-1.2-.3-2.3-.9-3.4-1.6-2.1-1.5-3.8-4-4.4-6.7-.6-2.8-.2-5.7 1.4-8.3 6.1-8.7 12.4-17.9 19-27.3 12.3-17.7 25.4-36.5 38.6-55.3.3-.4.6-.9 1-1.2.4-.4.8-.6 1.3-.8 1-.3 2.1 0 2.9.6.8.6 1.2 1.7 1.2 2.8V137c-.1 37.5-.1 62.6-.1 62.6z"/><path fill="#FE9B44" d="M342.7 199.6h-4.5V137 72.8 37.9v-3.1c.1-1-.3-2.1-1.2-2.8-.8-.7-1.9-.9-2.9-.6-.5.1-1 .4-1.3.8-.4.4-.7.8-1 1.2-13.1 18.8-26.3 37.7-38.6 55.3-6.6 9.5-13 18.6-19 27.3-1.6 2.6-2 5.5-1.4 8.3.6 2.8 2.3 5.2 4.4 6.7 1 .7 2.2 1.3 3.4 1.6.6.2 1.2.3 1.8.4.3 0 .6.1.9.1h50.5v4.5h-50.6c-.4 0-.9-.1-1.3-.1-.9-.1-1.7-.3-2.5-.5-1.7-.5-3.3-1.3-4.8-2.3-2.9-2.1-5.3-5.5-6.1-9.4-.9-3.9-.3-8.1 1.9-11.7 6.1-8.8 12.5-18 19.2-27.6 12.9-18.5 26.6-38.2 40.3-57.8.6-.9 1.2-1.7 1.9-2.5.8-.7 1.7-1.2 2.7-1.5 2-.5 4.3-.1 5.9 1.3 1.7 1.3 2.5 3.5 2.3 5.5v168.6z"/><path fill="#FFE825" d="M347.2 199.6h-4.5V137 72.8 37.2 31c.1-2.1-.7-4.2-2.3-5.5-1.6-1.3-3.9-1.8-5.9-1.3-1 .3-1.9.8-2.7 1.5-.7.7-1.3 1.6-1.9 2.5-13.7 19.7-27.5 39.4-40.3 57.8-6.7 9.6-13.1 18.8-19.2 27.6-2.2 3.6-2.8 7.8-1.9 11.7.9 3.9 3.2 7.2 6.1 9.4 1.5 1.1 3.1 1.9 4.8 2.3.8.2 1.7.4 2.5.5.4 0 .9.1 1.3.1H333.8v4.5h-49.2c-2.1 0-4.3-.2-6.5-.8-2.2-.6-4.3-1.7-6.2-3-3.8-2.8-6.8-7-7.9-12-1.2-4.9-.4-10.5 2.5-15.1 6.1-8.8 12.6-18.2 19.3-27.8 13.4-19.3 27.8-39.8 42.1-60.4l1.3-1.9c.2-.3.5-.6.7-.9.3-.3.5-.6.8-.9 1.1-1.1 2.5-1.8 4-2.3 3-.8 6.4-.1 8.8 1.9 2.5 1.9 3.7 5.2 3.5 8.3v109.7c.2 37.6.2 62.7.2 62.7z"/><path fill="#71DB00" d="M351.7 199.6h-4.5V137 72.8 36.6v-9.3c.2-3.1-1-6.3-3.5-8.3-2.4-2-5.8-2.7-8.8-1.9-1.5.4-2.9 1.2-4 2.3-.3.3-.5.6-.8.9-.3.3-.5.6-.7.9l-1.3 1.9c-14.3 20.6-28.7 41.1-42.1 60.4-6.7 9.6-13.2 19-19.3 27.8-2.9 4.6-3.7 10.1-2.5 15.1 1.1 5 4.1 9.2 7.9 12 1.9 1.4 4 2.4 6.2 3 2.2.6 4.4.8 6.5.8H334v4.5h-51c-.7 0-1.3-.1-2-.2-1.3-.1-2.7-.4-4-.8-2.6-.8-5.2-2-7.6-3.7-4.6-3.4-8.2-8.6-9.6-14.6-.7-3-.9-6.2-.3-9.4.5-3.2 1.7-6.3 3.4-9.1l.7-1 .6-.9c.4-.6.8-1.1 1.2-1.7.8-1.1 1.6-2.2 2.4-3.4l4.8-6.9c3.2-4.6 6.5-9.4 9.9-14.2 6.7-9.6 13.6-19.6 20.7-29.7 3.5-5.1 7.1-10.2 10.6-15.3 1.8-2.6 3.6-5.1 5.4-7.7l3.6-5.1c.6-.9 1.2-1.7 1.8-2.5l.9-1.2c.3-.4.6-.7.9-1.1l1-1.1.9-1c.3-.3.6-.6 1-.9.3-.3.7-.6 1-.8 1.5-1 3.2-1.7 5-2.1 3.7-.6 7.6.2 10.6 2.5 1.5 1.1 2.8 2.5 3.7 4.1l.3.6.3.6c.2.4.4.8.5 1.2.2.8.5 1.7.6 2.6.2.8.3 1.8.4 2.8.1.9.2 1.9.2 3 .1 2 0 4.1 0 6.2V137c-.2 37.5-.2 62.6-.2 62.6z"/><path fill="#4A99F2" d="M356.2 199.6h-4.5V137 72.8 35.9v-6.2c0-1-.1-2-.2-3-.1-.9-.2-1.9-.4-2.8-.1-.9-.4-1.7-.6-2.6-.1-.4-.3-.8-.5-1.2l-.3-.6-.3-.6c-.9-1.6-2.2-3-3.7-4.1-3-2.2-7-3.1-10.6-2.5-1.8.4-3.5 1-5 2.1-.4.2-.7.6-1 .8-.3.3-.7.6-1 .9l-.9 1-1 1.1c-.3.4-.6.7-.9 1.1l-.9 1.2c-.6.8-1.2 1.7-1.8 2.5l-3.6 5.1c-1.8 2.6-3.6 5.1-5.4 7.7-3.6 5.1-7.1 10.2-10.6 15.3-7 10.1-14 20.1-20.7 29.7-3.4 4.8-6.7 9.6-9.9 14.2l-4.8 6.9c-.8 1.1-1.6 2.3-2.4 3.4-.4.6-.8 1.1-1.2 1.7l-.6.9-.7 1c-1.7 2.8-2.9 5.9-3.4 9.1-.5 3.2-.4 6.4.3 9.4 1.4 6 5 11.2 9.6 14.6 2.3 1.7 4.9 2.9 7.6 3.7 1.3.4 2.7.7 4 .8.7.1 1.3.1 2 .2h51v4.5h-51.1c-.8 0-1.5-.1-2.3-.2-1.6-.2-3.1-.5-4.7-.9-3.1-.9-6.2-2.4-9-4.4-5.5-4-9.7-10.1-11.3-17.2-.8-3.5-1-7.4-.4-11.1.6-3.8 2-7.5 4-10.7l.8-1.1.7-1c.4-.6.8-1.1 1.2-1.7.8-1.1 1.6-2.2 2.4-3.4l4.8-6.9c3.2-4.6 6.5-9.4 9.9-14.2 6.7-9.6 13.6-19.6 20.7-29.7 3.5-5.1 7.1-10.1 10.6-15.3 1.8-2.6 3.6-5.1 5.4-7.7l4.5-6.4c.7-1.1 1.5-2.2 2.3-3.1l1.2-1.4 1.2-1.2 1.2-1.2 1.2-.9c.4-.3.8-.6 1.3-.9.4-.3.8-.6 1.3-.8 1.8-1 3.9-1.5 6-1.9 4.3-.5 8.9.5 12.5 3 1.8 1.2 3.4 2.7 4.6 4.4l.5.6.4.7c.2.4.5.9.7 1.3.4.9.8 1.8 1.1 2.8.1.5.3.9.4 1.5l.3 1.7c.3 1.1.3 2.4.4 3.6l.1.9v108.5c-.5 37.6-.5 62.7-.5 62.7z"/><path fill="#A74BF5" d="M360.7 199.6h-4.5V137 72.8 28.5l-.1-.9c-.1-1.2-.1-2.5-.4-3.6l-.3-1.7c-.1-.6-.3-1-.4-1.5-.3-1-.7-1.9-1.1-2.8-.2-.5-.5-.9-.7-1.3l-.4-.7-.5-.6c-1.2-1.7-2.8-3.2-4.6-4.4-3.6-2.5-8.2-3.5-12.5-3-2.1.3-4.2.9-6 1.9-.5.2-.9.5-1.3.8-.4.3-.9.5-1.3.9l-1.2.9-1.2 1.2-1.2 1.2-1.2 1.4c-.8.9-1.5 2-2.3 3.1l-4.5 6.4c-1.8 2.6-3.6 5.1-5.4 7.7-3.6 5.1-7.1 10.2-10.6 15.3-7 10.1-14 20.1-20.7 29.7-3.4 4.8-6.7 9.5-9.9 14.2l-4.8 6.9c-.8 1.1-1.6 2.3-2.4 3.4-.4.6-.8 1.1-1.2 1.7l-.7 1-.8 1.1c-2 3.3-3.4 7-4 10.7-.6 3.8-.4 7.6.4 11.1 1.6 7.1 5.8 13.2 11.3 17.2 2.8 2 5.8 3.5 9 4.4 1.6.4 3.1.8 4.7.9.8.1 1.6.2 2.3.2H333.3v4.5H282c-.9 0-1.8-.1-2.7-.2-1.8-.2-3.6-.6-5.4-1.1-3.6-1-7.2-2.8-10.4-5.1-6.4-4.7-11.2-11.7-13.1-19.9-.9-4.1-1.2-8.5-.4-12.8.7-4.4 2.3-8.6 4.6-12.4l.9-1.3.8-1.1c.4-.6.8-1.1 1.2-1.7.8-1.1 1.6-2.2 2.4-3.4l4.8-6.9c3.2-4.6 6.5-9.4 9.9-14.2 6.7-9.6 13.6-19.6 20.7-29.7 3.5-5.1 7.1-10.1 10.6-15.3 1.8-2.6 3.6-5.1 5.4-7.7l5.3-7.7c.9-1.3 1.8-2.6 2.8-3.7l1.4-1.7c.5-.5 1-.9 1.5-1.3l1.5-1.2 1.5-.9c.5-.3 1-.6 1.5-.8.5-.2 1-.5 1.5-.7 2.1-.9 4.5-1.4 7-1.6 4.9-.4 10.1.9 14.3 3.6 2.1 1.3 4 3 5.5 4.8l.6.7.5.7c.3.5.7 1 .9 1.4.5 1 1.1 1.9 1.5 3.1l.3.8c.1.3.2.5.3.9l.5 1.9.2 1c0 .2.1.3.1.5v.6l.2 2.2.1 1.1v110.2c.4 37.6.4 62.7.4 62.7z"/><g><path fill="#FF4949" d="M360.6 128.5h25.1v4.5h-25.1z"/><path fill="#FE9B44" d="M360.6 133h25.1v4.5h-25.1z"/><path fill="#FFE825" d="M360.6 137.5h25.1v4.5h-25.1z"/><path fill="#71DB00" d="M360.6 142h25.1v4.5h-25.1z"/><path fill="#4A99F2" d="M360.6 146.5h25.1v4.5h-25.1z"/><path fill="#A74BF5" d="M360.6 151h25.1v4.5h-25.1z"/></g><linearGradient id="f" gradientUnits="userSpaceOnUse" x1="310.292" y1="204.689" x2="310.292" y2="181.147" gradientTransform="rotate(90 341.48 173.374)"><stop offset="0" stop-opacity="0"/><stop offset="1"/></linearGradient><path opacity=".6" fill="url(#f)" d="M310.2 128.7h23.5v27h-23.5z"/><linearGradient id="g" gradientUnits="userSpaceOnUse" x1="310.125" y1="177.89" x2="310.125" y2="160.348" gradientTransform="matrix(0 1 1 0 200.277 -168.106)"><stop offset="0" stop-opacity="0"/><stop offset="1"/></linearGradient><path opacity=".6" fill="url(#g)" d="M360.6 128.5h17.5v27h-17.5z"/></g></svg>