<svg style="display:none;" xmlns="http://www.w3.org/2000/svg" xmlns:xlink="http://www.w3.org/1999/xlink">
<defs>
<symbol id="aladwaa_logo" viewBox="0 0 195 95">
    <path fill="#EA4A24" d="M169.15 82.09c.456-3.288.71-6.643.71-10.058 0-39.935-32.373-72.308-72.31-72.308-39.934 0-72.308 32.374-72.308 72.308 0 3.415.254 6.77.712 10.058H169.15z"/>
    <path fill="#F6A61C" d="M153.005 82.09c.58-3.267.897-6.623.897-10.058 0-31.672-25.676-57.348-57.35-57.348-31.67 0-57.348 25.676-57.348 57.348 0 3.435.318 6.79.897 10.058h112.906z"/>
    <path fill="#30A449" d="M138.73 82.09c.784-3.226 1.21-6.59 1.21-10.058 0-23.41-18.978-42.387-42.39-42.387-23.41 0-42.387 18.978-42.387 42.387 0 3.468.425 6.832 1.21 10.058h82.356z"/>
    <path fill="#63C8DF" d="M123.068 82.09c1.23-3.114 1.91-6.506 1.91-10.058 0-15.147-12.278-27.427-27.427-27.427-15.145 0-27.426 12.28-27.426 27.427 0 3.552.682 6.943 1.91 10.058h51.035z"/>
    <path d="M-.484 74.41c1.067-2.514 3.384-3.287 5.996-3.054.4.035.81.008 1.213-.002.082-.002.16-.064.106-.04.388-1.596.64-3.14 1.14-4.602 1.104-3.24 5.55-6.63 9.63-6.703 4.655-.086 8.087 1.966 11.027 5.24 1.144 1.275 1.535 2.867.854 4.387-.63 1.41-1.765 2.52-3.59 2.338-.16-.016-3.742-1.11-4.79-.81 4.332.724 5.46 2.306 6.125 2.868 1.643 1.39 2.278 3.55 1.573 5.474-.686 1.87-2.46 3.053-4.616 3.05-6.027-.005-12.056.034-18.08-.085-.977-.02-2.65-.235-3.392-.894-4.578-4.308-3.266-6.995-3.192-7.17zm8.48-2.264c-1.4 0-2.605-.035-3.81.006C2.14 72.224.6 73.74.6 75.628c-.002 1.8 1.52 3.378 3.52 3.39 6.027.038 12.056.018 18.084-.04 1.934-.02 3.47-1.646 3.457-3.45-.012-1.813-1.565-3.328-3.507-3.387-1.034-.03-2.07.006-3.104-.02-1.62-.03-2.744-1.044-2.663-2.374.084-1.382 1.406-2.29 3.068-2.024 1.194.194 2.38.46 3.55.77 1.226.322 2.114-.17 2.837-1.066.743-.924.795-2.05.057-2.863-.937-1.032-2.038-2.03-3.26-2.672-4.498-2.366-10.038-.9-12.917 3.25-1.416 2.05-1.86 4.35-1.724 7.01zm186.296 6.196c0 1.46-.67 2.68-.97 3.05-2.014 2.484-5.12 2.413-7.578.38-2.425-1.997-3.074-4.272-2.972-7.27.168-4.925-.065-9.863-.103-14.795-.02-2.238.065-4.477.04-6.715-.024-2.02 1.092-3.31 2.726-4.138 1.627-.825 3.387-.79 4.81.435 1.444 1.24 4.044 3.312 4.044 6.045.002 8.998.002 14.007.002 23.006zm-3.53-13.932h.016c0-3.78.004-7.56-.006-11.34-.003-.44-.02-.907-.15-1.324-.562-1.81-2.11-2.773-3.932-2.49-1.887.296-3.102 1.667-3.107 3.633-.022 7.646-.02 15.296-.024 22.945-.005 2.287 1.55 3.978 3.646 3.968 2.058-.012 3.553-1.65 3.556-3.92.004-3.826 0-7.65 0-11.474zm-73.634 6.094c-.014-5.077 2.34-8.248 6.318-10.27 1.036-.524 2.317-.737 3.498-.78 2.91-.106 5.828-.034 9.09-.034-1.027-.95-1.784-1.72-2.61-2.4-2.535-2.086-2.85-4.606-.856-7.192 1.4-1.814 5.136-1.922 7.114-.184.644.562 1.24 1.178 1.856 1.766 2.258 2.146 2.23 4.987-.07 7.07-.195.177-.4.344-.568.84 1.172 0 2.353.1 3.513-.02 3.516-.353 5.2 2.122 6.95 4.452.335.444.364 1.192.368 1.802.03 4.095-.113 8.193.055 12.28.102 2.472-2.476 4.808-4.874 4.806-9.04-.01-18.08.072-27.12.09-13.84.022-27.68.028-41.52.016-1.15-.002-2.3-.225-3.56-.355-.48 1.16-.93 2.473-1.55 3.697-2.006 3.95-4.95 6.818-9.42 7.794-6.23 1.36-11.73.1-16.592-4.237-1.784-1.594-2.9-3.208-2.15-5.446.46-1.378 1.622-2.52 2.55-3.89-1.21-.763-1.05-2.314-1.037-3.85.03-3.238-.03-6.478.037-9.715.013-.663.24-1.464.658-1.953 2.656-3.12 5.806-5.177 10.167-5.138 3.286.03 6.543-.035 9.25 2.102 2.978 2.352 6.092 4.63 7.467 8.45.14.39.835.828 1.273.828 12.147.043 24.293.04 36.438.002.624-.002 1.43-.23 1.83-.654 1.107-1.17 2.135-1.442 3.5.126zm-45.397 1.2c-.79-2.017-1.244-3.84-2.163-5.38-4.012-6.726-13.41-8.333-19.485-3.397-1.27 1.034-2.774 2.04-2.817 3.915-.078 3.328-.07 6.658-.015 9.986.028 1.634 1.03 2.5 2.556 2.485 3.463-.027 10.388-.02 10.388-.02 1.94.062 3.144-.75 4.01-2.347.12-.216.314-.39.475-.584-1.228 4.408-6.108 7.414-10.79 6.38-1.125-.248-2.19-.77-3.275-1.194-1.493-.585-3.433.04-4.252 1.395-1.017 1.677-.867 3.495.444 4.512 6.468 5.018 19.426 5.732 23.642-5.776.603-1.648.987-3.377 1.586-5.46.66 2.97 2.64 3.057 4.862 3.047 11.966-.06 23.932-.045 35.898-.008 1.393.003 2.562-.144 3.175-1.73-.206 1.536.647 1.72 1.73 1.72 8.86-.014 17.725-.004 26.586-.02 2.563-.004 4.08-1.56 4.09-4.136.012-3.78.007-7.558.014-11.337.002-2.44-1.288-3.725-3.756-3.725-5.714.002-11.426.004-17.14.012-4.024.004-6.904 1.95-8.51 5.522-.78 1.735-.96 3.74-1.493 5.955-.737-.387-1.656-.866-2.667-1.395-.833 1.523-2.365 1.597-3.996 1.595-11.785-.024-23.572-.015-35.358-.015-1.347-.002-2.69-.002-3.738-.002zm68.136-19.018c.05-1.807-1.67-3.46-3.706-3.567-2.017-.107-4.043 1.64-4.062 3.503-.02 1.833 1.86 3.598 3.837 3.607 1.95.006 3.88-1.735 3.93-3.544zm30.968 18.59v-4.784c0-4.585-.013-9.17.01-13.754.007-1.668 1.286-3.435 2.932-4.013 1.86-.653 3.63-.497 5.152.906.493.457.938.97 1.463 1.387 1.28 1.02 1.898 2.26 1.893 3.952-.016 4.94.12 9.88.142 14.823.013 2.962-.068 5.927-.134 8.892-.04 1.744-2.253 3.822-4.1 3.83-6.16.03-12.32.033-18.48.047-1.314.003-2.46-.39-3.383-1.378-.426-.456-.902-.87-1.394-1.26-1.71-1.345-2.377-3.59-1.624-5.55.75-1.96 2.385-2.942 4.692-2.83.128.007.26-.034.557-.077.035-.5.104-1.017.104-1.53.008-5.083.004-10.163.004-15.244 0-3.346.05-3.466 2.438-5.865.078-.11.184-.72-.687-1.02-.136-.047-.75-.262-.87-.34-1.527-1.01-1.268-2.595-.154-3.928.336-.4 1.186-.52 1.146-1.01-1.995-2.433.416-3.86 2.26-4.59.875-.344 1.763-.658 2.65-.967 1.54-.536 2.522-.228 3.546 1.08.16.208.32.434.53.582 2.122 1.502 2.153 2.995.022 4.58.702 2.77-.42 4.914-3.813 5.61 1.247.666 1.553 1.287 2.078 1.883 1.322 1.495 2.298 2.71 2.282 4.75-.04 5.067.082 10.136.145 15.202.004.21.066.42.1.63l.494-.01zm-11.37 1.04c-.73 0-1.27.013-1.806-.005-2.068-.062-3.63 1.24-3.785 3.173-.142 1.737 1.545 3.493 3.54 3.507 6.03.038 12.06.03 18.09-.003 1.728-.01 3.394-1.68 3.4-3.376.024-7.602.032-15.204.003-22.81-.006-1.44-.682-2.613-2.04-3.235-2.476-1.133-5.037.543-5.05 3.33-.023 5.892-.006 11.786-.004 17.68v1.642h-5.064v-1.404c-.006-5.76-.005-11.52-.022-17.277-.005-1.438-.343-2.784-1.582-3.67-1.163-.834-2.45-.844-3.7-.19-1.436.746-1.96 2.064-1.97 3.585-.025 5.265-.01 10.53-.012 15.794.002 1.024.002 2.05.002 3.262zm1.803-28.787c-.223.04-.392.074-.562.087-1.013.082-1.5.677-1.313 1.62.18.903.835 1.217 1.74.877 1.01-.376 2.02-.737 3.03-1.102 2.468-.887 2.885-2.248 1.356-4.496l1.042-.614c.64-.377 1.57-.637 1.107-1.656-.445-.977-1.31-.958-2.194-.608-1.126.444-2.26.866-3.37 1.345-1.208.52-1.69 1.782-1.178 3.014.15.367.354.715.6 1.166.05.09-.14.34-.258.363zM43.205 67.513V79.39c0 3.626-3.865 6.076-7.063 4.298-1.525-.85-2.793-2.21-4.05-3.466-.366-.364-.4-1.167-.403-1.77-.025-8.412-.02-16.825-.018-25.24 0-2.34 1.268-4.18 3.245-4.733 2.31-.648 4.943.392 6.08 2.396 0 0 2.225 2.782 2.225 5.57-.068 3.688-.018 7.38-.018 11.067zm-10.734-2.37h-.08c0 4.268-.004 8.535.013 12.8 0 .343.08.725.25 1.015.703 1.21 2.923 2.06 4.25 1.675 1.99-.582 2.93-1.743 2.93-3.63.006-8.042.01-16.084.01-24.125 0-2.367-1.446-3.913-3.665-3.92-2.177-.008-3.693 1.583-3.7 3.92-.014 4.09-.006 8.176-.006 12.265z"/>
    <path fill="#fff" d="M7.996 72.146c-.137-2.66.307-4.96 1.725-7.005 2.88-4.15 8.42-5.616 12.92-3.25 1.222.642 2.322 1.637 3.26 2.672.736.814.685 1.94-.058 2.862-.723.9-1.61 1.39-2.837 1.067-1.17-.31-2.355-.574-3.55-.77-1.662-.267-2.982.645-3.067 2.026-.08 1.328 1.044 2.343 2.662 2.376 1.034.022 2.07-.013 3.104.02 1.942.06 3.496 1.573 3.51 3.387.014 1.805-1.524 3.43-3.458 3.447-6.028.06-12.056.08-18.085.043-2-.014-3.52-1.592-3.52-3.392 0-1.888 1.54-3.403 3.587-3.474 1.205-.042 2.41-.006 3.81-.006zm182.767-7.736c0 3.824.004 7.647-.002 11.472 0 2.27-1.496 3.91-3.554 3.92-2.1.013-3.65-1.678-3.648-3.967.006-7.647.002-15.297.023-22.945.008-1.968 1.224-3.338 3.11-3.633 1.82-.284 3.37.678 3.932 2.49.13.417.147.88.15 1.325.01 3.78.006 7.558.006 11.337h-.013zM71.73 71.703h3.735c11.785 0 23.572-.01 35.358.016 1.63.002 3.163-.07 3.996-1.595 1.01.527 1.93 1.01 2.667 1.396.532-2.216.713-4.22 1.494-5.956 1.605-3.572 4.485-5.517 8.51-5.522 5.714-.008 11.426-.008 17.14-.01 2.468 0 3.758 1.283 3.755 3.725-.007 3.78-.002 7.556-.015 11.335-.007 2.58-1.523 4.134-4.088 4.138-8.86.017-17.724.007-26.586.02-1.083 0-1.937-.185-1.73-1.72-.61 1.588-1.78 1.734-3.173 1.73-11.966-.04-23.932-.05-35.898.008-2.222.01-4.202-.078-4.862-3.05-.6 2.086-.983 3.813-1.587 5.46-4.215 11.51-17.172 10.793-23.642 5.775-1.31-1.017-1.46-2.835-.444-4.512.82-1.352 2.76-1.977 4.252-1.39 1.083.422 2.15.943 3.275 1.193 4.68 1.032 9.56-1.974 10.788-6.38-.16.192-.356.368-.474.584-.865 1.596-2.067 2.406-4.01 2.344-3.46-.112-6.923-.003-10.387.024-1.525.014-2.527-.854-2.556-2.485-.058-3.33-.063-6.66.015-9.987.044-1.877 1.548-2.883 2.82-3.915 6.074-4.937 15.472-3.33 19.484 3.394.922 1.544 1.373 3.368 2.167 5.383zm70.562-4.634c-3.524 0-6.894-.014-10.26.002-2.937.012-5.014 1.477-6.43 3.948-.682 1.188-.486 1.462.885 1.466 4.854.01 9.71.016 14.565.018.392 0 .78-.05 1.24-.078V67.07zM63.906 71.81c.012-2.85-2.863-5.347-5.82-5.152-2.94.193-5.474 2.686-5.154 5.153h10.974zM139.9 52.674c-.05 1.812-1.98 3.553-3.93 3.545-1.976-.01-3.854-1.776-3.837-3.607.02-1.863 2.046-3.612 4.062-3.506 2.036.106 3.754 1.76 3.705 3.566zm19.564 19.64V69.05c0-5.264-.015-10.53.012-15.793.01-1.52.534-2.84 1.97-3.586 1.25-.65 2.537-.64 3.7.193 1.24.886 1.577 2.232 1.582 3.67.018 5.757.017 11.517.02 17.277.002.436.002.873.002 1.403h5.065v-1.64c-.002-5.896-.02-11.788.004-17.683.01-2.785 2.57-4.462 5.05-3.33 1.355.623 2.03 1.794 2.037 3.236.03 7.605.02 15.208-.004 22.812-.006 1.696-1.672 3.366-3.4 3.376-6.03.033-12.06.04-18.088.002-1.996-.014-3.682-1.768-3.54-3.507.153-1.937 1.716-3.237 3.784-3.173.534.02 1.07.007 1.803.007zm1.432-30.224c-.516-1.232.002-2.585 1.21-3.105 1.11-.478 2.244-.9 3.37-1.346.885-.35 1.75-.37 2.194.606.464 1.02-.47 1.28-1.107 1.656-.347.205-.693.41-1.043.614 1.528 2.248 1.11 3.61-1.355 4.496-1.01.364-2.02.726-3.03 1.102-.905.34-1.562.025-1.74-.876-.187-.944.3-1.54 1.313-1.622.26-.02.88-.564.188-1.528zM32.47 65.145c0-4.09-.007-8.176.004-12.265.006-2.338 1.524-3.927 3.7-3.92 2.22.007 3.666 1.552 3.666 3.92-.002 8.04-.006 16.083-.01 24.124 0 1.888-.94 3.05-2.932 3.63-1.326.39-3.546-.465-4.25-1.676-.17-.29-.247-.674-.25-1.016-.016-4.264-.01-8.53-.01-12.798h.083z"/>
    <path d="M142.292 67.07v5.43h-1.24c-4.854 0-9.71-.006-14.564-.018-1.37-.002-1.565-.276-.886-1.463 1.417-2.47 3.494-3.937 6.43-3.95 3.367-.013 6.736 0 10.26 0zm-.81 3.646v1.334h-9.59c-1.19 0-2.385-.002-3.576-.006-.337 0-.385-.065-.217-.356.346-.607.854-.968 1.575-.972.827-.002 10.94 0 11.807 0zm-77.576 1.097H52.93c-.318-2.468 2.216-4.96 5.156-5.152 2.958-.193 5.832 2.304 5.82 5.154zm-5.732-.647h4.57c-1.276-1.4-3.1-1.375-4.57 0z"/>
</symbol>
<symbol id="magni_icon" viewBox="0 0 26 26">
    <path fill="#556579" d="M9.423 15.536c-1.4-1.428-2.116-3.15-2.148-5.163 0-1.948.715-3.652 2.148-5.113 1.432-1.396 3.157-2.11 5.176-2.143 1.952 0 3.66.714 5.125 2.143 1.4 1.43 2.115 3.134 2.148 5.113 0 1.98-.717 3.702-2.148 5.163-1.433 1.396-3.142 2.11-5.127 2.143-1.987 0-3.71-.716-5.177-2.145zM7.227 3.02c-2.02 2.045-3.045 4.497-3.077 7.353 0 1.46.325 2.906.977 4.335L.487 20.94c-.292.424-.455.927-.487 1.51.032.813.39 1.494 1.074 2.047.977.682 1.953.665 2.93-.05l6.25-4.626c1.4.65 2.848.976 4.345.976 2.83 0 5.29-1.022 7.372-3.068 1.985-2.013 2.994-4.464 3.027-7.354 0-2.856-1.01-5.308-3.028-7.354C19.952 1.04 17.496.03 14.6 0c-2.866 0-5.323 1.007-7.373 3.02z"/>
</symbol>
<symbol id="notifications_icon" viewBox="0 0 26 29">
    <path d="M24.635 21.085c-1.774-1.243-2.875-3.763-3.442-5.893-.32-1.242-.46-2.343-.46-2.98v-.32c-.037-.71-.144-1.456-.285-2.13-.284-1.207-.745-2.343-1.384-3.3-1.03-1.564-2.414-2.77-4.047-3.374.035-.177.035-.318.035-.496 0-1.365-1.083-2.498-2.43-2.584V0h-.16v.008c-1.347.086-2.43 1.22-2.43 2.584 0 .178 0 .32.035.496-1.633.604-3.02 1.81-4.047 3.373-.64.96-1.1 2.096-1.384 3.303-.142.674-.25 1.42-.284 2.13v.32c0 .638-.142 1.738-.46 2.98-.57 2.13-1.67 4.65-3.445 5.893-2.566 1.793 6.53 3.55 12.014 3.584h.163c5.485-.035 14.58-1.792 12.013-3.585zM12.803 26.25h-.218c-.93-.007-1.934-.106-2.974-.18.23 1.505 1.516 2.662 3.085 2.662 1.568 0 2.855-1.157 3.083-2.663-1.04.073-2.047.172-2.974.18z"/>
    <path d="M12.958 0l-.417.008c1.347.086 2.515 1.22 2.515 2.584 0 .178 0 .32-.035.496 1.632.604 3.017 1.81 4.045 3.373.64.96 1.1 2.096 1.384 3.303.14.674.247 1.42.283 2.13v.32c0 .638.142 1.738.46 2.98.57 2.13 1.67 4.65 3.445 5.893 2.564 1.793-6.195 3.55-11.68 3.584V0z" opacity=".2"/>
    <path fill="#000" opacity=".2" d="M12.958,0c0.028,0-0.417,0.008-0.417,0.008c1.345,0.086,2.513,1.219,2.513,2.584
      c0,0.178,0,0.319-0.035,0.496c1.633,0.604,3.018,1.811,4.046,3.373c0.639,0.958,1.101,2.094,1.384,3.301
      c0.143,0.674,0.249,1.42,0.285,2.13c0,0.106,0,0.213,0,0.319c0,0.639,0.142,1.739,0.461,2.981c0.568,2.13,1.669,4.65,3.444,5.893
      c2.565,1.793-6.194,3.55-11.68,3.584V0z"/>
    <path d="M13.116 26.25c.928-.007 2.046-.106 3.086-.18-.227 1.505-1.518 2.662-3.086 2.662V26.25z"/>
</symbol>
<symbol id="books_icon" viewBox="0 0 55 50">
    <path fill="#31A7DB" d="M21 11.68V5.11c0-2.008 1-3.65 3-3.65V0H5.633C2.823 0 1 2.3 1 5.11v6.676C1 14.596 2.823 17 5.633 17H24v-1.67c-2 0-3-1.643-3-3.65z"/>
    <path fill="#2D82A8" d="M5.633 11C2.823 11 1 8.757 1 5.946v5.84C1 14.596 2.823 17 5.633 17h18.25l-4.355-6H5.633z" opacity=".4"/>
    <path fill="#fff" d="M5.633 0C2.823 0 1 2.3 1 5.11V7.3C1 4.49 2.823 2 5.633 2H21.72c.607 0 1.28-.54 2.28-.54V0H5.633z" opacity=".2"/>
    <path fill="#F2F2F2" d="M48.544 11.784V5.006c0-1.296 1.05-2.347 2.347-2.347H23.36c-1.295 0-2.347 1.05-2.347 2.345v6.778c0 1.296 1.052 2.346 2.348 2.346h27.53c-1.294 0-2.345-1.05-2.345-2.347z"/>
    <path d="M23 13.09V6.62C23 5.383 24.156 4 25.393 4H48.12c.317 0 1.13-1 2.093-1h-26.28C22.696 3 22 3.923 22 5.16v6.47c0 1.003.434 1.842 1.343 2.127-.068-.212-.343-.434-.343-.668zm26.58.78h.633c-.234 0-.455-.046-.668-.113.01.037.02.076.035.112z" opacity=".2"/>
    <path fill="#1981A5" d="M50.89 17H23.883C21.065 17 19 14.497 19 11.68V5.11C19 2.292 21.065 0 23.882 0h27.01c.806 0 1.46.693 1.46 1.5 0 .806-.654 1.5-1.46 1.5H23.88C22.675 3 22 3.902 22 5.11v6.57c0 1.208.675 2.32 1.882 2.32h27.01c.806 0 1.46.694 1.46 1.5 0 .807-.654 1.5-1.46 1.5z"/>
    <path fill="#EDCD48" d="M8 28.47V21.9c0-2.008-3-3.65-4-3.65V17h17.395C24.205 17 27 19.088 27 21.9v6.676C27 31.386 24.205 34 21.395 34H4v-1.88c1 0 4-1.643 4-3.65z"/>
    <path fill="#F2F2F2" d="M25.633 28.42v-6.47c0-1.238-1.002-2.24-2.24-2.24h26.28c1.236 0 2.24 1.002 2.24 2.24v6.47c0 1.236-1.004 2.24-2.24 2.24h-26.28c1.238 0 2.24-1.004 2.24-2.24z"/>
    <path fill="#D3D3D3" d="M7.632 28.48v-5.96c0-1.138-.147-1.5-.424-2.062h16.96c1.244 0 2.25.924 2.25 2.063v5.96c0 1.14-1.006 2.063-2.25 2.063H6.592c.71-.76 1.054-1.417 1.04-2.063z"/>
    <path d="M51 29.88v-6.47c0-1.238-1.62-2.41-2.835-2.41h-22.3c-.313 0-1.112-1-2.055-1h25.788c1.214 0 2.402.712 2.402 1.95v6.47c0 1.002-.436 1.84-1.326 2.126.064-.212.326-.433.326-.667zm-27.082.78h-.632c.233 0 .455-.047.668-.113-.012.037-.02.075-.036.112z" opacity=".2"/>
    <path fill="#DA9F2C" d="M22.52 34h27.01c2.82 0 5.47-2.713 5.47-5.53V21.9c0-2.818-2.652-4.9-5.47-4.9H22.52c-.805 0-1.458.693-1.458 1.5 0 .806.653 1.5 1.46 1.5h27.01C50.74 20 52 20.692 52 21.9v6.57c0 1.206-1.26 1.53-2.47 1.53H22.52c-.805 0-1.458 1.194-1.458 2 0 .807.653 2 1.46 2z"/>
    <path fill="#966C39" d="M20 45.258v-6.57c0-2.007 1-3.65 3-3.65V34H4.415C1.605 34 0 35.878 0 38.688v6.677C0 48.175 1.604 50 4.415 50H23v-1.092c-2 0-3-1.642-3-3.65z"/>
    <path fill="#fff" d="M4.415 34C1.605 34 0 35.878 0 38.688v2.19C0 38.068 1.604 36 4.415 36H20.5c.607 0 1.5-.96 2.5-.96V34H4.415z" opacity=".2"/>
    <path fill="#654D32" d="M4.415 45C1.605 45 0 42.336 0 39.525v5.84C0 48.175 1.604 50 4.415 50h18.25l-3.624-5H4.417z" opacity=".4"/>
    <path fill="#F2F2F2" d="M46.752 45.208v-6.47c0-1.237 1.003-2.24 2.24-2.24H22.714c-1.237 0-2.24 1.003-2.24 2.24v6.47c0 1.237 1.003 2.24 2.24 2.24h26.278c-1.237 0-2.24-1.003-2.24-2.24z"/>
    <path d="M22 46.668v-6.47C22 38.96 22.87 38 24.07 38h22.064c.31 0 1.1-1 2.032-1H22.654c-1.2 0-1.654.502-1.654 1.74v6.47c0 1 .436 1.84 1.317 2.126-.064-.212-.317-.434-.317-.668zm25.552.78h.614c-.228 0-.44-.045-.648-.112l.034.112z" opacity=".2"/>
    <path fill="#654D2F" d="M49.672 50H22.664C19.846 50 18 48.076 18 45.258v-6.57C18 35.87 19.846 34 22.664 34h27.01c.806 0 1.46.693 1.46 1.5 0 .806-.654 1.5-1.46 1.5h-27.01C21.456 37 21 37.48 21 38.688v6.57c0 1.208.456 1.742 1.664 1.742h27.01c.806 0 1.46.694 1.46 1.5-.002.807-.655 1.5-1.462 1.5z"/>
</symbol>
<symbol id="tests_icon" viewBox="0 0 55 51">
    <path fill="#fff" d="M24 6h7v6h-7z"/>
    <path fill="#020202" d="M24 7h7v2h-7z" opacity=".2"/>
    <path fill="#EC7D24" d="M22 0h11v7H22z"/>
    <path fill="#fff" d="M14.27 17.627l-2.55 2.898-4.828-4.247 2.55-2.898z"/>
    <circle cx="27.082" cy="36.385" r="21.082" fill="#fff" stroke="#000" stroke-width="3.546" stroke-miterlimit="10" opacity=".3"/>
    <circle cx="27.082" cy="34.099" r="21.082" fill="#fff" stroke="#EC7D24" stroke-width="3.546" stroke-miterlimit="10"/>
    <path d="M38.165 24.27l-.96-.96 4.784-4.792.957.958zM12.46 49.966l-.957-.956 4.786-4.792.956.957zm24.745-4.794l.96-.958 4.786 4.796-.96.958zm-25.7-25.695l.957-.957 4.787 4.79-.96.957zM26 13h2v6h-2zm0 36h2v6h-2zm16-15h6v1h-6zM6 34h6v1H6zM41.09 29.056l-.532-1.245 6.23-2.655.53 1.246zM7.67 43.336l-.53-1.246 6.227-2.663.533 1.245zm24.743 4.772l1.246-.533 2.662 6.227-1.246.533zm-14.28-33.423l1.246-.533 2.66 6.228-1.247.533zm15.022 6.61l-1.257-.505 2.522-6.285 1.258.504zm-13.12 32.688l-1.258-.505 2.523-6.285 1.258.505zm20.14-13.81l.502-1.26 6.288 2.513-.502 1.26zM7.486 27.05l.504-1.257 6.29 2.523-.505 1.258z" fill="#EC7D24"/>
    <path fill="#004C10" fill-rule="evenodd" d="M50.935 20.864c-.06-.296-.232-.65-.52-1.066l-3.472-3.556c-.29-.237-.64-.384-1.043-.447-.292 0-.608.15-.955.447L28.28 33.312l-7.293-7.468c-.346-.296-.666-.474-.954-.535-.292.06-.64.237-1.043.533l-3.472 3.56c-.29.352-.463.71-.52 1.062.057.297.23.653.52 1.07l11.72 12c.288.24.637.387 1.04.448.35 0 .697-.15 1.042-.45L50.413 21.93c.29-.354.463-.71.522-1.066z" clip-rule="evenodd" opacity=".9"/>
    <path fill="#1FA23E" fill-rule="evenodd" d="M50.935 18.292c-.06-.296-.232-.65-.52-1.066l-3.472-3.556c-.29-.237-.64-.385-1.043-.447-.292 0-.608.15-.955.447L28.28 30.74l-7.293-7.468c-.346-.296-.666-.474-.954-.535-.292.06-.64.238-1.043.535l-3.472 3.558c-.29.353-.463.712-.52 1.063.057.298.23.654.52 1.07l11.72 12c.288.24.637.386 1.04.447.35 0 .697-.15 1.042-.448l21.093-21.604c.29-.355.463-.71.522-1.066z" clip-rule="evenodd"/>
</symbol>
<symbol id="video_icon" viewBox="0 0 32 32">
    <path fill="#E02F2F" d="M31.67 9.18s-.312-2.354-1.27-3.39c-1.218-1.358-2.58-1.366-3.206-1.443C22.717 4 16.002 4 16.002 4h-.015s-6.715 0-11.19.347c-.626.077-1.988.085-3.206 1.443C.635 6.826.32 9.18.32 9.18S0 11.94 0 14.7v2.59c0 2.762.32 5.522.32 5.522s.312 2.352 1.27 3.386c1.22 1.358 2.816 1.317 3.528 1.46 2.56.26 10.877.342 10.877.342s6.722-.012 11.2-.355c.624-.08 1.987-.088 3.204-1.446.956-1.036 1.27-3.388 1.27-3.388s.32-2.76.32-5.523V14.7c0-2.76-.32-5.522-.32-5.522z"/>
    <path fill="#fff" d="M12 10v12l10-6z"/>
</symbol>
<symbol id="cup_icon" viewBox="0 0 41 58">
    <path d="M20 48H8v10h25V48H20zm10 7H11v-5h19v5z" opacity=".3"/>
    <path fill="#F7CD1C" d="M7 0h27v4H7z"/>
    <path fill="#E08F19" d="M32 6v2h7v5.38c0 3.435-3.453 3.62-6.36 3.62H32v3h3.282C38.188 20 41 17.79 41 14.884V6h-9z"/>
    <path fill="#F8A61B" d="M9 6v2H2v5.38C2 16.816 5.453 17 8.36 17H9v3H5.718C2.813 20 0 17.79 0 14.884V6h9z"/>
    <path fill="#E08F19" d="M20 4v41h3v-4.657c1-.79 2.23-2.225 2.23-3.883 0-1.66-1.23-3.094-2.23-3.883V30h1v-2.472c4 0 8-3.57 8-7.972V4H20z"/>
    <path fill="#F8A61B" d="M21 4v41h-3v-4.657c-1-.79-2.23-2.225-2.23-3.883 0-1.66 1.23-3.094 2.23-3.883V30h-1v-2.472c-4 0-8-3.57-8-7.972V4h12z"/>
    <path fill="#298EA5" d="M20 45h10v10H20z"/>
    <path fill="#034566" d="M20 47v3h10v5H20v3h13V47z"/>
    <path fill="#30A7DB" d="M11 45h9v10h-9z"/>
    <path fill="#025696" d="M20 47v3h-9v5h9v3H8V47z"/>
    <path fill="#95D8EF" d="M11.527 58h4.556L20.5 47h-4.556z" opacity=".7"/>
</symbol>
<symbol id="play_icon" viewBox="0 0 25 30">
    <path d="M23.005 11.82C16.71 6.84 10.26 2.968 3.657.204 3.347.067 3.06 0 2.793 0c-.223 0-.466.045-.73.136-.977.317-1.488.974-1.53 1.97C.533 2.106.4 3.76.4 3.94.13 7.383 0 10.916 0 14.54c0 5.48.176 9.603.53 12.365 0 .18.044.36.134.543.354 1.04 1.063 1.563 2.128 1.563.22 0 .51-.065.864-.202 7.092-2.99 13.94-7.178 20.545-12.57.488-.45.754-1.018.8-1.697 0-.724-.438-1.43-1.996-2.72z"/>
</symbol>
<symbol id="user_icon" viewBox="0 0 24 24">
    <path fill="#fff" d="M17.813 23.897c2.373-.112 3.943-.225 4.71-.337.072 0 .145-.02.218-.056.476-.263.66-.675.55-1.237-.512-2.25-1.807-4.05-3.89-5.398l-1.75-.79c-1.534-.6-2.41-1.18-2.63-1.742-.145-.564.11-1.33.768-2.306 2.19-3.45 2.555-6.466 1.095-9.053-.037-.037-.074-.093-.11-.17C15.568.94 13.853 0 11.625 0 10.6 0 9.598.263 8.612.787l-.548.338c-1.936 1.462-2.738 3.468-2.41 6.017.22 1.612.857 3.26 1.917 4.948.623.9.86 1.65.714 2.25-.183.524-1.077 1.104-2.683 1.742-1.094.487-1.68.75-1.75.787C1.84 18.142.56 19.94.014 22.265c-.037.3 0 .58.11.843.035.074.11.15.218.224.11.112.62.225 1.533.337 2.482.226 5.732.338 9.75.338 1.714 0 3.777-.038 6.187-.113z"/>
</symbol>
<symbol id="triangle" viewBox="0 0 20 88">
    <path fill="#43A8BF" d="M20 0L0 45l20 43z"/>
</symbol>
<symbol id="facbook_icon" viewBox="0 0 14 29">
    <path d="M12.58 14.098H8.633v14.077h-5.85V14.098H0V9.125h2.782v-3.22C2.782 3.6 3.876 0 8.686 0l4.333.017v4.83H9.872C9.36 4.847 8.63 5.1 8.63 6.2v2.925h4.46l-.51 4.974z"/>
</symbol>
<symbol id="twitter_icon" viewBox="0 0 24 20">
    <path d="M23.938 2.303c-.88.39-1.827.655-2.82.773 1.013-.608 1.792-1.57 2.158-2.717-.95.56-2 .97-3.118 1.19C19.262.596 17.985 0 16.573 0c-2.712 0-4.91 2.198-4.91 4.91 0 .385.04.76.126 1.12C7.705 5.824 4.086 3.87 1.664.9 1.243 1.623 1 2.467 1 3.366c0 1.704.868 3.207 2.186 4.087-.804-.025-1.562-.246-2.224-.614v.06c0 2.38 1.693 4.364 3.94 4.816-.413.113-.847.172-1.294.172-.317 0-.625-.032-.924-.09.625 1.953 2.44 3.372 4.588 3.41-1.68 1.318-3.8 2.104-6.1 2.104-.396 0-.787-.023-1.17-.07 2.172 1.395 4.754 2.208 7.527 2.208 9.032 0 13.97-7.483 13.97-13.972 0-.213-.004-.424-.013-.636.96-.692 1.792-1.556 2.45-2.54z"/>
</symbol>
<symbol id="google_icon" viewBox="0 0 24 23">
    <path d="M19.52.31h-1.536v3.074H14.91v1.538h3.074v3.072h1.537V4.922h3.077V3.384H19.52zM14.375 0H7.71C4.328 0 1.508 2.495 1.508 5.24c0 2.8 1.853 5.037 5.034 5.037.22 0 .436-.014.646-.028-.207.393-.354.834-.354 1.3 0 .776.428 1.22.958 1.734-.4 0-.787.01-1.21.01C2.71 13.296 0 15.964 0 18.52c0 2.52 3.268 4.093 7.14 4.093 4.415 0 7.13-2.504 7.13-5.024 0-2.02-.437-3.036-2.59-4.65-.617-.464-1.96-1.413-1.96-2.05 0-.75.21-1.116 1.338-1.997 1.152-.9 1.968-2.087 1.968-3.56 0-1.607-.655-3.062-1.89-3.77h1.75L14.376 0zm-2.26 17.156c.055.23.085.472.085.717 0 2.037-1.31 3.627-5.075 3.627-2.676 0-4.61-1.695-4.61-3.73 0-1.995 2.268-3.714 4.945-3.684.624.006 1.206.105 1.733.276 1.456 1.01 2.627 1.642 2.922 2.794zM7.83 9.258c-1.797-.055-3.504-1.703-3.814-4.063-.312-2.357.895-4.163 2.69-4.11 1.796.055 3.333 1.99 3.643 4.347.307 2.36-.726 3.88-2.52 3.826z"/>
</symbol>
<symbol id="tri_icon" viewBox="0 0 36 35">
    <path fill="#fff" stroke-width="2" stroke-miterlimit="10" d="M8.124.138c0 14.867 9.334 27.613 22.244 33H.078m8.046-33"/>
</symbol>
<symbol id="like_icon" viewBox="0 0 22 18">
    <path fill="#F25549" d="M19.897 1.897L17.127.3c-.692-.4-1.825-.4-2.518 0l-2.77 1.597c-.346.2-.8.3-1.26.3s-.922-.1-1.27-.3L6.548.3C5.854-.1 4.72-.1 4.03.3L1.26 1.896C.565 2.296 0 3.28 0 4.08v3.196c0 .8.494 1.883 1.097 2.407l8.378 7.28c.434.433 1.107.393 1.107.393s.644.06 1.098-.393l8.378-7.28c.604-.524 1.098-1.607 1.098-2.407V4.08c0-.8-.566-1.782-1.26-2.183z"/>
    <path d="M17.127.3c-.69-.4-1.824-.4-2.517 0l-2.768 1.597c-.346.2-.802.3-1.26.3v15.157s.645.06 1.1-.393l8.377-7.28c.602-.522 1.096-1.605 1.096-2.405V4.08c0-.8-.566-1.782-1.26-2.182l-2.77-1.6z" opacity=".1"/>
</symbol>
<symbol id="bookmark_icon" viewBox="72.2 32.2 12.2 17.1">
    <path d="M82.9,32.2h-3c-0.7,0-1.3,0-1.5,0c0,0-0.1,0-0.1,0c-0.2,0-0.9,0-1.6,0h-3c-0.8,0-1.5,0.7-1.5,1.5v14.8
        c0,0.8,0.5,1,1.1,0.5l3.9-3.8c0.3-0.3,0.7-0.4,1.1-0.4c0.4,0,0.8,0.1,1.1,0.4l3.9,3.8c0.6,0.6,1.1,0.4,1.1-0.5V33.7
        C84.4,32.8,83.7,32.2,82.9,32.2z"/>
    <path fill="#000" opacity="0.1" d="M84.4,33.7c0-0.8-0.7-1.5-1.5-1.5h-3c-0.8,0-1.6,0-1.6,0v12.5c0.4,0,0.8,0.1,1.1,0.4l3.9,3.8
        c0.6,0.6,1.1,0.4,1.1-0.5V33.7z"/>
</symbol>
<symbol id="AladwaaTeam_icon" viewBox="0 0 144 146">
    <circle cx="72.5" cy="72.5" r="72.5" fill="#EA4A24"/>
    <circle cx="72.5" cy="72.5" r="57.5" fill="#F6A61C"/>
    <circle cx="72.5" cy="72.5" r="42.5" fill="#30A449"/>
    <circle cx="72.5" cy="72.5" r="27.5" fill="#63C8DF"/>
    <g fill-rule="evenodd" clip-rule="evenodd">
        <path d="M1.455 79.42c.773-1.825 2.454-2.385 4.348-2.216.29.025.586.006.88 0 .06-.002.116-.046.077-.03.28-1.157.462-2.277.824-3.337.803-2.35 4.026-4.808 6.983-4.86 3.377-.063 5.866 1.425 7.998 3.8.83.925 1.113 2.08.62 3.182-.458 1.02-1.28 1.826-2.604 1.693-.112-.01-2.712-.805-3.473-.587 3.144.524 3.96 1.672 4.443 2.08 1.19 1.008 1.65 2.575 1.14 3.97-.497 1.357-1.784 2.214-3.348 2.213-4.37-.005-8.743.023-13.114-.064-.707-.013-1.92-.17-2.46-.65-3.32-3.122-2.367-5.072-2.313-5.198zm6.15-1.644c-1.017 0-1.892-.024-2.764.005-1.48.053-2.6 1.15-2.6 2.52 0 1.307 1.104 2.45 2.553 2.46 4.373.03 8.745.013 13.116-.03 1.4-.013 2.517-1.19 2.507-2.5-.01-1.314-1.137-2.413-2.546-2.456-.75-.022-1.5.003-2.25-.013-1.172-.022-1.99-.76-1.93-1.723.06-1 1.02-1.662 2.225-1.468.866.14 1.726.332 2.574.556.89.233 1.533-.122 2.057-.774.54-.668.576-1.485.04-2.075-.678-.75-1.476-1.472-2.363-1.938-3.26-1.716-7.28-.653-9.367 2.36-1.03 1.483-1.35 3.15-1.252 5.08zm135.107 4.494c0 1.06-.484 1.944-.702 2.212-1.46 1.802-3.714 1.75-5.497.276-1.757-1.45-2.23-3.1-2.155-5.274.122-3.572-.047-7.153-.074-10.73-.01-1.624.05-3.247.03-4.87-.018-1.467.792-2.4 1.978-3 1.18-.6 2.455-.574 3.49.314 1.046.9 2.93 2.404 2.93 4.386V82.27zm-2.56-10.104h.01c0-2.742.004-5.482-.003-8.223-.003-.32-.017-.658-.11-.96-.407-1.314-1.53-2.012-2.85-1.806-1.37.214-2.253 1.208-2.257 2.635-.017 5.546-.014 11.094-.018 16.64-.003 1.66 1.124 2.887 2.646 2.88 1.494-.01 2.58-1.2 2.58-2.845.005-2.775 0-5.55 0-8.32zm-53.402 4.42c-.01-3.68 1.698-5.98 4.583-7.447.752-.383 1.68-.537 2.536-.568 2.11-.08 4.225-.026 6.59-.026-.745-.69-1.293-1.247-1.893-1.74-1.838-1.513-2.067-3.342-.622-5.217 1.015-1.317 3.725-1.394 5.16-.134.465.41.898.854 1.346 1.28 1.64 1.56 1.618 3.617-.05 5.127-.142.128-.29.25-.413.61.85 0 1.706.07 2.547-.014 2.55-.258 3.772 1.54 5.04 3.227.244.323.265.865.268 1.308.02 2.968-.083 5.94.038 8.904.075 1.793-1.794 3.487-3.534 3.486-6.556-.007-13.113.052-19.67.064-10.036.02-20.074.023-30.11.013-.834 0-1.667-.162-2.582-.257-.348.838-.674 1.79-1.125 2.68-1.456 2.863-3.59 4.944-6.833 5.65-4.52.987-8.506.074-12.033-3.073-1.293-1.154-2.103-2.327-1.56-3.95.335-.998 1.176-1.828 1.85-2.82-.88-.553-.763-1.678-.753-2.793.02-2.35-.02-4.698.027-7.046.01-.48.174-1.06.477-1.417 1.926-2.263 4.21-3.752 7.375-3.725 2.38.02 4.743-.026 6.705 1.523 2.16 1.707 4.42 3.36 5.417 6.13.102.282.606.6.925.6 8.81.03 17.617.03 26.425 0 .452 0 1.037-.167 1.328-.474.804-.843 1.55-1.042 2.54.096zm-32.923.87c-.576-1.463-.903-2.785-1.57-3.903-2.91-4.876-9.725-6.042-14.13-2.46-.922.75-2.013 1.478-2.045 2.838-.056 2.415-.05 4.83-.01 7.244.02 1.184.747 1.812 1.854 1.803 2.512-.02 7.534-.017 7.534-.017 1.408.045 2.28-.544 2.908-1.7.085-.158.23-.284.345-.425-.89 3.196-4.43 5.376-7.824 4.627-.818-.18-1.59-.56-2.376-.866-1.084-.424-2.49.028-3.085 1.01-.738 1.217-.63 2.536.322 3.273 4.69 3.64 14.088 4.157 17.145-4.19.438-1.194.716-2.448 1.15-3.96.48 2.155 1.915 2.22 3.526 2.21 8.68-.04 17.356-.032 26.034-.004 1.01.003 1.858-.103 2.3-1.254-.148 1.114.47 1.247 1.256 1.246 6.427-.01 12.854-.003 19.28-.014 1.86-.002 2.96-1.13 2.965-3 .008-2.74.005-5.48.01-8.222 0-1.77-.935-2.7-2.724-2.7-4.144 0-8.287 0-12.43.006-2.918.003-5.007 1.415-6.17 4.006-.566 1.26-.698 2.712-1.084 4.32-.536-.282-1.203-.63-1.937-1.014-.604 1.104-1.715 1.158-2.897 1.156-8.547-.02-17.095-.01-25.643-.01-.973-.002-1.948-.002-2.708-.002zm49.413-13.793c.035-1.31-1.21-2.51-2.687-2.586-1.462-.077-2.932 1.19-2.945 2.542-.013 1.327 1.35 2.607 2.782 2.614 1.414.004 2.815-1.26 2.85-2.572zm22.46 13.484v-3.47c0-3.326-.01-6.65.007-9.977.005-1.208.933-2.49 2.126-2.91 1.35-.473 2.633-.36 3.736.658.356.33.68.702 1.06 1.004.927.74 1.375 1.64 1.372 2.866-.012 3.583.087 7.167.102 10.75.01 2.15-.05 4.3-.097 6.45-.028 1.265-1.634 2.772-2.975 2.778-4.467.02-8.934.023-13.4.033-.956 0-1.786-.285-2.455-1-.31-.333-.655-.634-1.01-.914-1.24-.976-1.725-2.604-1.18-4.026.546-1.42 1.73-2.134 3.405-2.052.093.005.188-.025.403-.056.026-.362.077-.737.077-1.11.005-3.686.002-7.37.002-11.056 0-2.426.036-2.513 1.768-4.254.058-.08.133-.522-.497-.74-.098-.033-.545-.188-.63-.246-1.108-.733-.92-1.88-.112-2.85.243-.29.86-.374.83-.732-1.446-1.763.303-2.8 1.64-3.327.635-.25 1.278-.478 1.922-.702 1.116-.39 1.83-.165 2.57.783.118.15.235.314.387.422 1.54 1.09 1.562 2.172.016 3.322.51 2.007-.305 3.563-2.767 4.068.905.482 1.127.933 1.51 1.365.96 1.084 1.666 1.966 1.655 3.445-.028 3.674.06 7.35.104 11.024 0 .153.047.306.07.458.12 0 .24-.003.36-.005zm-8.246.752c-.53 0-.92.01-1.31-.004-1.5-.047-2.633.898-2.745 2.3-.104 1.26 1.12 2.532 2.566 2.542 4.373.028 8.745.02 13.118-.002 1.254-.007 2.462-1.218 2.467-2.448.02-5.515.024-11.03.003-16.543-.004-1.046-.494-1.896-1.48-2.346-1.795-.82-3.652.394-3.66 2.414-.02 4.274-.005 8.548-.004 12.823v1.19h-3.674v-1.02c-.004-4.177-.004-8.354-.017-12.53-.004-1.042-.25-2.02-1.148-2.662-.844-.604-1.776-.61-2.684-.14-1.04.543-1.423 1.5-1.43 2.602-.018 3.818-.007 7.635-.007 11.453v2.37zm1.307-20.878c-.16.03-.28.055-.404.064-.735.06-1.088.49-.952 1.176.128.654.604.88 1.263.636.73-.274 1.464-.536 2.197-.8 1.79-.643 2.092-1.63.983-3.26l.756-.446c.464-.273 1.14-.462.803-1.202-.322-.708-.95-.694-1.59-.44-.817.323-1.64.628-2.446.976-.876.377-1.227 1.292-.854 2.186.11.267.257.52.434.846.035.065-.103.246-.19.263zM33.14 74.417v8.613c0 2.628-2.803 4.406-5.123 3.116-1.106-.616-2.024-1.602-2.937-2.512-.264-.264-.29-.847-.29-1.284-.018-6.1-.014-12.203-.012-18.305 0-1.696.92-3.032 2.354-3.433 1.674-.47 3.585.285 4.41 1.74 0 0 1.613 2.017 1.613 4.038-.05 2.675-.015 5.352-.015 8.027zM25.354 72.7h-.058c0 3.093-.004 6.187.007 9.28 0 .25.058.526.18.736.51.88 2.12 1.497 3.082 1.216 1.444-.422 2.126-1.264 2.127-2.633l.006-17.497c0-1.717-1.05-2.838-2.658-2.844-1.58-.006-2.68 1.15-2.684 2.844-.007 2.965-.002 5.93-.002 8.894z"/>
        <path fill="#fff" d="M7.604 77.776c-.1-1.928.222-3.595 1.25-5.08 2.088-3.01 6.107-4.074 9.368-2.36.887.467 1.685 1.19 2.364 1.94.535.59.498 1.406-.04 2.075-.525.654-1.17 1.01-2.06.776-.848-.223-1.707-.417-2.573-.557-1.205-.195-2.164.465-2.225 1.467-.058.964.758 1.7 1.93 1.724.75.017 1.502-.01 2.25.014 1.41.043 2.537 1.142 2.547 2.456.01 1.308-1.105 2.487-2.508 2.5-4.37.042-8.743.058-13.116.03-1.45-.01-2.55-1.154-2.55-2.46 0-1.368 1.118-2.467 2.6-2.52.875-.03 1.75-.004 2.765-.004zm132.55-5.61c0 2.773.002 5.546 0 8.32-.004 1.646-1.09 2.835-2.58 2.844-1.523.008-2.65-1.218-2.648-2.878.004-5.547 0-11.094.018-16.64.004-1.428.887-2.422 2.255-2.636 1.317-.206 2.442.492 2.85 1.806.094.302.107.64.11.96.005 2.74.002 5.48.002 8.223h-.01zm-86.327 5.29h2.708c8.548 0 17.096-.008 25.643.01 1.183.003 2.293-.05 2.897-1.155.733.386 1.4.734 1.937 1.015.386-1.606.517-3.06 1.083-4.32 1.164-2.59 3.252-4 6.172-4.005 4.143-.006 8.286-.007 12.43-.008 1.788 0 2.724.932 2.722 2.7-.006 2.742-.003 5.482-.01 8.223-.007 1.87-1.108 2.998-2.967 3-6.426.01-12.853.004-19.28.013-.786 0-1.404-.132-1.255-1.246-.444 1.15-1.292 1.257-2.302 1.254-8.678-.028-17.355-.037-26.034.005-1.61.01-3.047-.054-3.525-2.21-.436 1.513-.714 2.767-1.152 3.96-3.057 8.348-12.455 7.83-17.145 4.19-.95-.74-1.06-2.057-.323-3.273.594-.982 2-1.435 3.085-1.01.785.306 1.558.685 2.374.865 3.395.75 6.932-1.43 7.823-4.626-.117.14-.26.267-.346.424-.628 1.156-1.5 1.746-2.908 1.7-2.51-.082-5.022-.004-7.534.017-1.107.01-1.834-.62-1.854-1.803-.042-2.413-.046-4.83.01-7.242.033-1.36 1.123-2.09 2.044-2.84 4.406-3.58 11.222-2.414 14.132 2.462.666 1.12.993 2.44 1.57 3.904zM105 74.096c-2.556 0-5-.01-7.44 0-2.13.01-3.637 1.073-4.664 2.865-.494.86-.353 1.06.642 1.064 3.52.008 7.042.012 10.564.013.283 0 .565-.034.9-.056-.002-1.287-.002-2.51-.002-3.884zm-56.848 3.44c.01-2.067-2.076-3.88-4.22-3.738-2.132.14-3.97 1.947-3.74 3.737h7.96zm55.113-13.88c-.035 1.312-1.436 2.575-2.85 2.57-1.433-.006-2.795-1.287-2.782-2.616.014-1.35 1.483-2.62 2.945-2.542 1.477.078 2.723 1.277 2.687 2.587zm14.19 14.244v-2.37c0-3.817-.01-7.634.007-11.452.006-1.103.388-2.06 1.428-2.6.908-.473 1.84-.466 2.684.138.9.643 1.145 1.62 1.147 2.662.015 4.176.015 8.353.018 12.53v1.02h3.674v-1.19c0-4.274-.015-8.548.004-12.823.01-2.02 1.866-3.236 3.662-2.414.984.453 1.475 1.3 1.48 2.348.02 5.515.015 11.03-.003 16.543-.005 1.23-1.213 2.44-2.467 2.45-4.373.023-8.745.03-13.118 0-1.448-.01-2.67-1.28-2.568-2.543.112-1.4 1.245-2.347 2.745-2.3.388.014.777.003 1.31.003zm1.037-21.92c-.373-.895 0-1.876.877-2.253.804-.347 1.626-.653 2.443-.976.642-.252 1.27-.265 1.59.44.338.74-.338.93-.802 1.204l-.755.446c1.108 1.63.806 2.616-.983 3.26-.732.263-1.467.525-2.197.798-.658.246-1.134.018-1.263-.636-.136-.685.217-1.116.952-1.176.19-.014.64-.41.137-1.107zM25.354 72.7c0-2.966-.005-5.93.003-8.895.004-1.696 1.105-2.85 2.684-2.845 1.61.006 2.66 1.127 2.66 2.844L30.693 81.3c0 1.368-.683 2.21-2.127 2.632-.96.28-2.57-.337-3.082-1.216-.123-.21-.18-.488-.18-.735-.012-3.092-.007-6.186-.007-9.28h.057z"/>
        <path d="M105 74.095v3.94h-.9c-3.52 0-7.042-.005-10.563-.013-.995-.002-1.135-.2-.642-1.062 1.027-1.792 2.534-2.855 4.663-2.864 2.442-.01 4.886 0 7.442 0zm-.587 2.644v.966h-6.956c-.865 0-1.73 0-2.594-.004-.245 0-.278-.048-.157-.26.25-.44.62-.7 1.144-.704.6-.002 7.935 0 8.563 0zm-56.26.795h-7.96c-.23-1.79 1.607-3.596 3.74-3.737 2.143-.14 4.23 1.67 4.22 3.737zm-4.158-.47h3.315c-.927-1.015-2.25-.996-3.315 0z"/>
    </g>
</symbol>
<symbol id="arrow_icon" viewBox="0 0 13 20">
    <path fill="none" stroke="#fff" stroke-width="3.438" stroke-miterlimit="10" d="M10.824 2.32L2.68 10.07l8.144 7.754" stroke-linecap="round"/>
</symbol>
<symbol id="more_icon" viewBox="0 0 7 24">
    <path d="M5.644 19.7c0 1.27-1.04 2.3-2.322 2.3S1 20.97 1 19.7c0-1.27 1.04-2.3 2.322-2.3s2.322 1.03 2.322 2.3zm0-8.2c0 1.27-1.04 2.3-2.322 2.3S1 12.77 1 11.5c0-1.27 1.04-2.3 2.322-2.3s2.322 1.03 2.322 2.3zm0-8.2c0 1.27-1.04 2.3-2.322 2.3S1 4.57 1 3.3C1 2.03 2.04 1 3.322 1s2.322 1.03 2.322 2.3z"/>
</symbol>
<symbol id="edit_icon" viewBox="0 0 14 14">
    <path d="M11.44 7.648c-.032-.102-.083-.187-.15-.254L4.132.187c-.22-.22-.49-.245-.812-.076-.693.44-1.302.915-1.826 1.423C.97 2.04.504 2.615.098 3.258c-.152.288-.127.55.076.787l7.182 7.208c.118.102.202.16.253.178 1.76.56 3.29 1.067 4.592 1.523.084.034.16.05.23.05.083 0 .168-.024.253-.075.287-.152.372-.39.254-.71-.12-.34-.62-1.862-1.5-4.57zm-3.4 2.613L1.343 3.538c.203-.304.406-.558.61-.76L8.447 9.27c.118.103.27.163.457.18.152-.017.295-.085.43-.204.255-.304.263-.583.026-.837L2.89 1.936c.22-.22.448-.422.685-.61l6.675 6.776c.1.34.304.93.608 1.776l-.964.964c-.203-.084-.82-.28-1.853-.584z"/>
</symbol>
<symbol id="plus_icon" viewBox="0 0 15 15">
    <path d="M8.938 5.046V.82C8.872.447 8.653.195 8.283.064c-.852-.087-1.714-.087-2.586 0H5.6c-.373.11-.558.36-.558.754v4.227H.818c-.37.065-.622.294-.753.688-.087.852-.087 1.704 0 2.556v.1c.087.37.338.555.753.555H5.04v4.228c.066.37.284.623.656.753.85.087 1.713.087 2.586 0h.098c.37-.11.557-.36.557-.753V8.946h4.223c.37-.065.622-.284.753-.655.11-.85.11-1.702 0-2.554 0-.043-.01-.087-.033-.13-.11-.372-.35-.558-.72-.558H8.938z"/>
</symbol>
<symbol id="signOut_icon" viewBox="0 0 15 14">
    <path d="M10.505 3.165c-1.486-.31-2.894-.495-4.223-.55V.365c2.046.11 3.856.366 5.43.77.21.054.393.155.55.3.105.11.21.32.315.63.21 1.52.315 2.327.315 2.42.07 1.152.105 2.096.105 2.83 0 1.756-.148 3.57-.446 5.436 0 .02-.006.046-.024.084-.14.42-.41.677-.813.77-1.626.42-3.436.676-5.43.768v-2.25c1.434-.056 2.842-.238 4.223-.55.21-1.336.314-2.755.314-4.257 0-1.466-.106-2.848-.315-4.148zm-6.32 8.376c-.595-.437-1.242-.977-1.942-1.62C1.578 9.318 1.07 8.815.72 8.41c-.365-.402-.566-.632-.6-.686-.157-.238-.157-.467 0-.687 0 0 .568-.65.603-.687.42-.476.928-.99 1.522-1.538.595-.55 1.242-1.08 1.94-1.593.176-.11.35-.12.525-.03.157.074.236.24.236.495v1.84c.63.074 1.427.203 2.388.385.84.166 1.348.294 1.523.385.35.202.533.568.55 1.1 0 .457-.183.814-.55 1.07-.158.092-.665.22-1.522.385-.978.183-1.773.31-2.386.384v1.84c-.02.33-.176.513-.473.55-.105 0-.2-.028-.288-.083z"/>
</symbol>
<symbol id="store_icon" viewBox="0 0 22 23">
    <path d="M1.462 0C1.29 0 1.118.03.946.09.316.39 0 .87 0 1.527c0 .18.028.36.086.54.286.658.745.987 1.376.987h1.462c.372.03.63.36.774.988.458 3.383.93 6.555 1.42 9.52.2 1.286.3 1.96.3 2.02s.028.134.086.224c.23.69.688 1.033 1.376 1.033 2.522 0 4.644-.09 6.364-.27 2.58-.27 4.63-.57 6.15-.9.63-.18 1.002-.6 1.117-1.256l1.464-9.563c.057-.27.028-.54-.086-.807-.23-.658-.674-.988-1.333-.988H6.495c-.06-.302-.16-.586-.303-.856C5.532.733 4.442 0 2.924 0H1.462zm5.934 9.025c-.2-1.287-.344-2.245-.43-2.874h11.868l-1.032 6.826c-2.924.54-6.15.853-9.675.943-.172-1.107-.416-2.74-.73-4.894zM15.61 21.64c.4.9 1.074 1.348 2.02 1.348.315 0 .63-.075.946-.225.832-.42 1.247-1.108 1.247-2.065 0-.33-.072-.658-.215-.988-.402-.868-1.06-1.302-1.978-1.302-.316 0-.617.075-.903.225-.89.42-1.333 1.107-1.333 2.065 0 .33.07.644.215.943zm-10.278 0c.4.9 1.075 1.348 2.02 1.348.316 0 .63-.075.947-.225.83-.42 1.245-1.108 1.245-2.065 0-.33-.072-.658-.215-.988-.4-.868-1.06-1.302-1.977-1.302-.316 0-.617.075-.903.225-.89.42-1.333 1.107-1.333 2.065 0 .33.07.644.215.943z"/>
</symbol>
<symbol id="phone_icon" viewBox="0 0 22 22">
    <path fill="#fff" fill-rule="evenodd" d="M19.968 15.464l-4.917-2.636-.373-.132c-.194 0-.39.103-.583.308l-2.125 2.02c-.28.265-.57.31-.876.133-2.028-1.288-3.71-3.075-5.042-5.36-.167-.293-.14-.6.083-.923L8.26 6.678c.14-.176.222-.38.25-.615 0-.116-.042-.264-.125-.44L5.675.44C5.508.175 5.3.03 5.05 0 3.605.147 2.494.6 1.716 1.362.354 2.827.036 4.98.758 7.82c.75 2.782 2.292 5.447 4.625 7.995 1.5 1.553 3.167 2.826 5 3.822 1.694.878 3.333 1.332 4.917 1.36.806 0 1.542-.145 2.21-.438 1.75-.764 2.707-2.227 2.874-4.395-.027-.233-.166-.468-.416-.702z" clip-rule="evenodd"/>
</symbol>
<symbol id="Student_icon" viewBox="0 0 190.5 218">
    <path fill="#DDA37C" d="M31.117 126.953c-5.482 0-9.927-5.162-9.927-11.53s4.445-11.53 9.927-11.53"/>
    <path fill="#FBD099" d="M161 117.046c0 36.915-29.59 66.838-66.5 66.838-36.912 0-66.5-29.923-66.5-66.838V93.798C28 56.882 57.588 26.96 94.5 26.96c36.91 0 66.5 29.922 66.5 66.838v23.248z"/>
    <path fill="#F2C38F" d="M95.87 26.96c-1.35 0-2.8.053-4.127.13C119.216 37.824 138 63.294 138 93.014v24.82c0 29.718-18.787 55.188-46.26 65.92 1.326.08 2.725.13 4.07.13 36.91 0 66.19-29.922 66.19-66.837v-23.25c0-36.915-29.22-66.836-66.13-66.836z"/>
    <path fill="#DDA37C" d="M170.46 115.423c0-5.79-4.46-10.567-8.46-11.39V93.797c0-36.916-29.22-66.837-66.13-66.837-1.468 0-3.058.064-4.497.158C126.197 29.365 153 58.348 153 93.798v23.248c0 35.45-26.805 64.434-61.63 66.68 1.44.094 2.958.158 4.425.158 33.56 0 60.786-24.737 65.45-56.975 5.13-.448 9.214-5.413 9.214-11.488z"/>
    <path fill="#99492C" d="M115 143.524c0 11.122-9.017 20.14-20.14 20.14-11.126 0-20.144-9.018-20.144-20.14"/>
    <path fill="#fff" d="M115 143.285c0 1.71-.212 3.715-.612 4.715H75.23c-.29-1-.514-3.003-.514-4.832"/>
    <circle cx="125.373" cy="110.929" r="9.551" fill="#fff"/>
    <path d="M125.373 105.222c-.48 0-.95.06-1.398.17.258.406.406.886.406 1.4 0 1.448-1.17 2.62-2.617 2.62-.654 0-1.253-.24-1.714-.638-.284.68-.44 1.43-.44 2.214 0 3.184 2.58 5.764 5.765 5.764s5.766-2.58 5.766-5.764c0-3.185-2.58-5.766-5.766-5.766z"/>
    <circle cx="65.985" cy="110.929" r="9.551" fill="#fff"/>
    <path d="M65.985 105.222c-.482 0-.95.06-1.398.17.257.406.407.886.407 1.4 0 1.448-1.174 2.62-2.62 2.62-.655 0-1.254-.24-1.714-.638-.284.68-.44 1.43-.44 2.214 0 3.184 2.582 5.764 5.766 5.764 3.185 0 5.766-2.58 5.766-5.764-.002-3.185-2.583-5.766-5.767-5.766z"/>
    <path fill="#6B3815" fill-rule="evenodd" d="M153 68v30.763c7-.882 12-5.43 12-10.92V68h-12z" clip-rule="evenodd"/>
    <g fill-rule="evenodd" clip-rule="evenodd">
        <path fill="#6B3815" d="M42.292 96.33c-7.142 5.105-18.45 1.7-19.794-9.42C12.23 28.54 43.65 26.088 43.65 26.088l-4.252-2.767c6.418-3.437 13.24-2.233 19.043 1.523 23.847 14.19 3.07 58.34-16.147 71.487z"/>
        <path fill="#4F260B" d="M61.19 28.92L56.8 39.084c9.484 31.142-10.533 54.303-10.533 54.303C57.683 83.977 79.5 51.743 61.19 28.92z"/>
    </g>
    <g fill-rule="evenodd" clip-rule="evenodd">
        <path fill="#6B3815" d="M97.065 78.22c1.372 2.252 2.524 4.145 4.095 6.728-59.673-18.632-46.11-60.227-41.875-66.79 4.235-6.562 11.658-12.6 20.608-16.323l-1.236 4.888c22.132-7.764 49.002-.148 63.532 10.733 4.94 3.7 9.7 7.613 14.57 11.4 8.222 6.397 17.894 9.473 28.99 10.78-5.157 7.78-17.9 14.2-17.9 14.2l12.365 5.37c0 .002-30.05 30.41-83.15 19.013z"/>
        <path fill="#4F260B" d="M151.562 36.706s16.915 9.36 33.83 3.45c0 0-4.816 6.627-17.347 14.045 0 0-11.92-5.703-16.483-17.493zm-62.57 18.417s23.332 28.178 56.27 22.618c0 0-27.563 7.21-48.49.197 0 0-8.335-12.128-7.78-22.813z"/>
    </g>
    <path d="M65.447 64.056c-4.945 13.3-14.13 26.022-23.01 32.167.386-.18.765-.377 1.133-.6 8.694-4.994 17.764-15.333 22.677-25.836C72.34 76.193 82.4 82.39 98.384 87.177c-1.082-1.578-1.95-2.84-2.838-4.134-14.344-5.24-23.893-11.91-30.1-18.987zm103.096-10.16c-.08.048-.15.095-.23.143l.96.415c.097-.137.192-.275.28-.414-.34-.042-.67-.1-1.01-.145zm-23.28 23.844s-25.727 6.724-46.34.857c-.616-.122-1.233-.245-1.857-.378.925 1.516 1.75 2.874 2.67 4.386 38.78 6.563 60.55-8.703 65.84-13.064-5.628 3.07-12.816 6.19-21.48 8.36.39-.057.774-.096 1.167-.162z" fill="#4F260B" fill-rule="evenodd" opacity=".3" clip-rule="evenodd"/>
    <path d="M142.42 94c4.532 0 8.58 3.174 8.58 7.706v15.78c0 4.532-4.048 8.514-8.58 8.514h-27.354c-4.53 0-8.066-3.98-8.066-8.514v-15.78c0-4.532 3.535-7.706 8.066-7.706H142m.42-6h-27.354C107.233 88 101 93.873 101 101.706v15.78c0 7.833 6.233 14.514 14.066 14.514h27.354c7.834 0 14.58-6.68 14.58-14.514v-15.78C157 93.873 150.254 88 142.42 88z"/>
    <path fill="#4F260B" d="M142.42 91h-27.354C107.233 91 101 96.873 101 104.706v1.214c-3-1.49-7-1.56-11-.22v-.994C90 96.873 84.254 91 76.42 91H49.067C41.234 91 35 96.873 35 104.706v15.78C35 128.32 41.234 135 49.067 135H76.42c7.834 0 13.58-6.68 13.58-14.514v-8.007c3-2.46 8-2.31 11 .45v7.555c0 7.833 6.233 14.514 14.066 14.514h27.354c7.834 0 13.58-6.68 13.58-14.515v-15.78C156 96.873 150.254 91 142.42 91zM84 120.486c0 4.532-3.047 8.514-7.58 8.514H49.067c-4.53 0-8.067-3.98-8.067-8.514v-15.78C41 100.174 44.536 97 49.067 97H76.42c4.532 0 7.58 3.174 7.58 7.706v15.78zm66 0c0 4.532-3.048 8.514-7.58 8.514h-27.354c-4.53 0-8.066-3.98-8.066-8.514v-15.78c0-4.532 3.535-7.706 8.066-7.706h27.354c4.53 0 7.58 3.174 7.58 7.706v15.78z" opacity=".3"/>
    <path fill="none" stroke="#000" stroke-width="6" stroke-miterlimit="10" d="M103.688 108.158c-4.577-4.577-11.986-4.577-16.563 0"/>
    <path fill="#fff" d="M153 100.327c0-4.6-3.73-8.327-8.33-8.327h-30.34c-4.6 0-8.33 3.728-8.33 8.327v19.346c0 4.6 3.73 8.327 8.33 8.327h30.34c4.6 0 8.33-3.728 8.33-8.327v-19.346z" opacity=".2"/>
    <path fill="#fff" d="M121.812 92l-13.033 34.105c1.405 1.09 3.166 1.895 5.084 1.895h11.383l13.703-36h-17.138z" opacity=".3"/>
    <path d="M76.42 94c4.532 0 8.58 3.174 8.58 7.706v15.78c0 4.532-4.047 8.514-8.58 8.514H49.067c-4.53 0-8.067-3.98-8.067-8.514v-15.78C41 97.174 44.536 94 49.067 94H76m.42-6H49.067C41.234 88 35 93.873 35 101.706v15.78C35 125.32 41.234 132 49.067 132H76.42c7.834 0 14.58-6.68 14.58-14.514v-15.78C91 93.873 84.254 88 76.42 88z"/>
    <path fill="#fff" d="M87 100.327c0-4.6-3.73-8.327-8.33-8.327H48.33c-4.6 0-8.33 3.728-8.33 8.327v19.346c0 4.6 3.73 8.327 8.33 8.327h30.34c4.6 0 8.33-3.728 8.33-8.327v-19.346z" opacity=".2"/>
    <path fill="#fff" d="M55.813 92L42.78 126.105c1.407 1.09 3.167 1.895 5.085 1.895h11.383l13.704-36h-17.14z" opacity=".3"/>
</symbol>
<symbol id="Tab_icon" viewBox="0 0 36.563 36.188">
    <path fill="#CACCCF" fill-rule="evenodd" stroke="#DEE0E3" stroke-width="6" stroke-miterlimit="10" d="M18.313 3.125c8.396 0 15.2 6.716 15.2 15s-6.805 15-15.2 15-15.2-6.716-15.2-15 6.805-15 15.2-15z" clip-rule="evenodd"/>
</symbol>
<symbol id="Year_icon" viewBox="0 4 25.5 18">
    <path d="M13 14.824c-.16 0-.318-.025-.475-.076l-7.28-2.428c-.132.343-.198.785-.198 1.43.475.275.938.828.938 1.78 0 .585-.292 1.005-.543 1.284 1.08 1.252 4.052 2.153 7.56 2.153 4.418 0 8-1.43 8-3.19V12.24l-7.53 2.508c-.154.05-.312.076-.472.076zm12.158-6.298l-12-4c-.104-.034-.213-.034-.316 0l-12 4C.638 8.594.5 8.786.5 9s.138.406.342.474l2.75.917c-.632.736-1 1.77-1.135 3.455-.435.205-.742.642-.742 1.156 0 .524.314.97.762 1.17-.39 3.405-2.43 4.54-2.43 4.83 0 .15 1.58 1 1.954 1 .58 0 1.974-.983 1.974-3.11 0-1.25-.113-2.195-.232-2.867.322-.233.545-.594.545-1.022 0-.466-.26-.856-.634-1.08.212-2.78 1.07-3.245 3.15-4.107.207-.082.6-.24.827-.335.408-.168.777-.318 1.13-.46 1.144-.454 2.11-.82 2.847-1.09.807-.288 1.17-.393 1.182-.396.31-.103.652.064.76.38.103.313-.065.653-.38.76-.024.007-1.428.408-5.08 1.918-.236.097-.46.185-.673.27-.433.17-.792.307-1.093.445l6.522 2.173c.052.015.104.024.158.024s.106-.01.158-.026l12-4c.203-.068.342-.26.342-.474s-.14-.406-.342-.474z"/>
</symbol>
<symbol id="mail_icon" viewBox="0 0 24 24">
    <path d="M11.742 14.343c-1.344 0-2.49-.345-3.44-1.038L0 6.875v11.77c.032.464.262.743.688.842 3.504.527 7.188.79 11.054.79 3.798 0 7.468-.263 11.004-.79.458-.1.704-.378.737-.84V6.874l-8.303 6.43c-.917.66-2.063 1.006-3.438 1.038zM9.875 11.03c.49.363 1.113.562 1.867.594.72 0 1.343-.198 1.867-.594l8.94-6.776c.49-.527.8-1.005.932-1.434V1.632c-.033-.46-.28-.742-.737-.84C19.24.265 15.575 0 11.742 0S4.226.265.688.792c-.426.098-.656.38-.688.84V2.82c.1.428.41.906.934 1.434l8.94 6.776z"/>
</symbol>
<symbol id="Plus" viewBox="0 0 24 24">
    <path fill="#fff" fill-rule="evenodd" d="M22.5 14H14v8.5c0 .276-.224.5-.5.5h-4c-.276 0-.5-.224-.5-.5V14H.5c-.276 0-.5-.224-.5-.5v-4c0-.276.224-.5.5-.5H9V.5c0-.276.224-.5.5-.5h4c.276 0 .5.224.5.5V9h8.5c.276 0 .5.224.5.5v4c0 .276-.224.5-.5.5z" clip-rule="evenodd"/>
</symbol>
<symbol id="close_icon" viewBox="0 0 512 512">
    <path fill="#A5A5A5" d="M256 33C132.3 33 32 133.3 32 257s100.3 224 224 224 224-100.3 224-224S379.7 33 256 33zm108.3 299.5c1.5 1.5 2.3 3.5 2.3 5.6 0 2.1-.8 4.2-2.3 5.6l-21.6 21.7c-1.6 1.6-3.6 2.3-5.6 2.3-2 0-4.1-.8-5.6-2.3L256 289.8l-75.4 75.7c-1.5 1.6-3.6 2.3-5.6 2.3-2 0-4.1-.8-5.6-2.3l-21.6-21.7c-1.5-1.5-2.3-3.5-2.3-5.6 0-2.1.8-4.2 2.3-5.6l75.7-76-75.9-75c-3.1-3.1-3.1-8.2 0-11.3l21.6-21.7c1.5-1.5 3.5-2.3 5.6-2.3 2.1 0 4.1.8 5.6 2.3l75.7 74.7 75.7-74.7c1.5-1.5 3.5-2.3 5.6-2.3 2.1 0 4.1.8 5.6 2.3l21.6 21.7c3.1 3.1 3.1 8.2 0 11.3l-75.9 75 75.6 75.9z"/>
</symbol>
<symbol id="TeacherFace_icon" viewBox="0 0 400 400">
    <g id="Layer_1_1_">
        <path fill="#474747" d="M331.32 250.28c0 50.85-55.03 147.425-139.09 147.425-84.062 0-139.092-99.146-139.092-147.426v-52.943c0-84.068 55.03-152.21 139.092-152.21 84.06 0 139.09 68.14 139.09 152.21v52.94z" opacity=".26" enable-background="new"/>
        <path fill="#DDA37C" d="M52.976 246.692c-13.493 0-24.437-12.706-24.437-28.385 0-15.677 10.94-28.382 24.435-28.382"/>
        <path fill="#EFC392" d="M336.243 241.283c0 52.352-56.24 151.783-142.783 151.783-86.542 0-142.784-102.08-142.784-151.783V186.78c0-86.552 56.242-156.707 142.784-156.707 86.543 0 142.783 70.154 142.783 156.707v54.503z"/>
        <path fill="#E5AD88" d="M193.46 30.073c-2.692 0-5.355.07-7.99.204 57.025 24.52 91.692 84.244 91.692 154.084v57.748c0 44.468-38.395 120.993-100.868 149.587 5.578.888 11.3 1.374 17.166 1.374 86.543 0 142.783-99.435 142.783-151.783v-54.504c0-86.554-56.24-156.71-142.783-156.71z" opacity=".6" enable-background="new"/>
        <path fill="#DDA37C" d="M358.236 203.536c0-14.867-9.842-27.04-22.367-28.26C331.11 94.1 276.13 30.073 193.46 30.073c-5.458 0-10.79.284-16 .827 77.406 8.09 126.78 74.782 126.78 155.88v54.502c0 49.03-49.335 139.354-126.69 150.617 5.18.764 10.485 1.166 15.91 1.166 86.543 0 142.783-99.434 142.783-151.782v-9.507c12.348-1.425 21.992-13.523 21.992-28.242z"/>
        <path fill="none" stroke="#474747" stroke-width="3" stroke-miterlimit="10" d="M224.493 191.067c18.417-9.415 34.27-7.31 53.277.825m-176.37-.825c18.42-9.415 34.277-7.31 53.28.825" stroke-linecap="round"/>
        <path fill="#474747" d="M98.27 58.07s20.593 33.362 9.028 64.826c-11.95 32.506-44.928 29.31-47.594 85.344-7.987 1.995-12.31-1.643-12.31-1.643S17.307 65.604 98.27 58.07zm204.78 17.79s-14.54 28.88-6.372 56.12c8.434 28.14 31.715 25.375 33.6 73.882 5.635 1.728 8.69-1.424 8.69-1.424S360.204 82.38 303.048 75.86z"/>
        <path d="M101.027 67.29c3.81-60.507 173.672-94.357 245.92 19.595-18.977-4.52-29.46 9.508-41.672 17.555-90.89 59.897-205.362 24.2-204.248-37.15z" opacity=".2" enable-background="new"/>
        <path fill="#474747" d="M98.566 59.903C102.3-.603 289.542-40.622 346.948 86.883c-18.612-4.52-31.302 2.123-43.278 10.17-89.12 59.9-206.198 24.203-205.104-37.15z"/>
        <path fill="#fff" d="M134.18 60.595s2.067-1.774 6-4.463c3.94-2.674 9.688-6.364 17.02-10.01 3.658-1.832 7.69-3.692 12.048-5.44 4.334-1.81 9.028-3.415 13.937-4.9 4.94-1.36 10.074-2.72 15.387-3.634 5.293-1.028 10.74-1.64 16.203-2.098 5.474-.264 10.962-.36 16.345-.004 2.695.155 5.364.327 7.982.69l3.912.464 3.825.657 3.756.658c1.226.29 2.44.578 3.644.86 2.404.573 4.75 1.144 6.98 1.882 4.53 1.273 8.668 2.9 12.51 4.32 3.74 1.65 7.23 3.05 10.147 4.644 2.926 1.583 5.56 2.787 7.568 4.073 4.067 2.47 6.396 3.88 6.396 3.88l-6.62-3.458c-2.062-1.18-4.755-2.246-7.73-3.667-1.486-.724-3.12-1.372-4.85-2.032l-5.41-2.146c-3.85-1.292-7.98-2.77-12.49-3.886-2.227-.662-4.56-1.153-6.943-1.642-1.185-.256-2.39-.51-3.604-.773-1.227-.204-2.462-.405-3.71-.61-1.246-.202-2.502-.403-3.77-.607-1.277-.14-2.56-.276-3.854-.414-2.58-.333-5.206-.473-7.855-.6-5.297-.298-10.69-.137-16.062.166-5.375.396-10.742.943-15.964 1.9-5.243.845-10.317 2.134-15.207 3.43-4.84 1.457-9.54 2.853-13.876 4.517-4.362 1.596-8.412 3.313-12.095 5.017-7.362 3.416-13.323 6.668-17.357 9.17-4.065 2.453-6.263 4.055-6.263 4.055zm.993 8.955s2.035-1.326 5.828-3.234c3.798-1.895 9.313-4.475 16.218-6.83 3.45-1.184 7.23-2.35 11.285-3.38 4.042-1.087 8.378-1.95 12.888-2.68 4.526-.622 9.22-1.214 14.023-1.394 4.798-.28 9.685-.177 14.563.063 4.867.414 9.725.977 14.436 1.927 2.362.457 4.7.923 6.97 1.554 1.14.293 2.275.584 3.4.87 1.108.35 2.21.693 3.3 1.035l3.242 1.026c1.054.4 2.092.8 3.12 1.192 2.055.787 4.06 1.57 5.945 2.486 3.85 1.66 7.31 3.584 10.532 5.292 3.114 1.9 6.028 3.55 8.418 5.3 2.397 1.74 4.58 3.118 6.205 4.493 3.302 2.66 5.188 4.183 5.188 4.183l-5.438-3.84c-1.684-1.282-3.934-2.545-6.396-4.152-1.227-.814-2.596-1.58-4.045-2.364-1.438-.808-2.95-1.65-4.526-2.54-3.247-1.592-6.726-3.387-10.577-4.905-1.885-.846-3.888-1.556-5.937-2.27l-3.093-1.11c-1.058-.32-2.126-.647-3.208-.975-1.076-.324-2.162-.654-3.254-.984l-3.353-.82c-2.24-.6-4.547-1.033-6.87-1.457-4.644-.89-9.428-1.386-14.212-1.752-4.787-.285-9.595-.437-14.32-.206-4.73.125-9.364.665-13.835 1.23-4.45.717-8.763 1.395-12.79 2.352-4.044.893-7.823 1.934-11.28 3-6.91 2.147-12.557 4.314-16.416 6.046-3.876 1.692-6.007 2.85-6.007 2.85zm98.21 20.936s-6.885 3.702-18.193 6.64c-5.64 1.464-12.357 2.747-19.64 3.317-3.644.212-7.423.393-11.262.233-3.84-.077-7.728-.463-11.597-.96-3.847-.635-7.686-1.386-11.38-2.44-1.853-.51-3.687-1.027-5.457-1.673-1.792-.582-3.538-1.22-5.22-1.938-1.703-.665-3.362-1.356-4.928-2.163-1.588-.757-3.136-1.505-4.58-2.354-2.965-1.564-5.603-3.312-8.064-4.875-2.36-1.71-4.58-3.206-6.374-4.75-1.8-1.54-3.454-2.77-4.66-3.967-2.464-2.325-3.872-3.657-3.872-3.657l4.093 3.394c1.26 1.128 2.975 2.274 4.837 3.708 1.86 1.435 4.143 2.807 6.518 4.44 2.487 1.473 5.146 3.123 8.12 4.572 1.45.792 3 1.485 4.59 2.18 1.57.73 3.196 1.432 4.886 2.054 1.663.69 3.387 1.3 5.157 1.85 1.745.62 3.555 1.11 5.38 1.592 3.645 1 7.425 1.692 11.215 2.286 3.798.526 7.62.948 11.398 1.062 3.776.197 7.5.056 11.1-.117 3.59-.29 7.07-.56 10.34-1.07 3.276-.46 6.354-1.05 9.174-1.69 5.64-1.275 10.274-2.65 13.46-3.787 3.19-1.102 4.964-1.89 4.964-1.89z" opacity=".1"/>
        <path fill="#474747" d="M124.23 367.436c21.375 18.225 39.86 25.63 69.23 25.63 29.7 0 48.447-7.368 69.96-25.63 0 0-3.808-5.108-8.674-6.368-9.88 10.634-45.284 11.292-45.284 11.292s-.196-14.77-16.002-14.77c-15.804 0-16 14.77-16 14.77s-28.368 1.217-49.456-11.73c-2.7 4.185-3.774 6.806-3.774 6.806z"/>
        <path fill="none" stroke="#474747" stroke-width="5" stroke-miterlimit="10" d="M256.236 369.898"/>
        <path fill="none" stroke="#99492C" stroke-width="4" stroke-miterlimit="10" d="M154.367 331.89c18.12 7.54 59.497 9.892 78.982 0" opacity=".7" stroke-linecap="round" enable-background="new"/>
        <path fill="none" stroke="#474747" stroke-width="5" stroke-miterlimit="10" d="M130.448 368.2l7.213-64.012c31.014 18.246 84.28 17.06 113.273 0l6.265 63.977" stroke-linejoin="round"/>
        <path fill="#474747" d="M209.462 372.36s.224-14.772-16.002-14.772c-15.804 0-16 14.77-16 14.77"/>
        <path d="M259.65 209.857l-34.188.012v8.16c0 9.135 8.523 16.45 17.653 16.447l34.046-.012v-11.728c.003-9.133-8.38-12.886-17.51-12.88z" opacity=".1" enable-background="new"/>
        <path fill="#fff" d="M259.65 214.78l-34.188.012v7.967c0 9.13 8.52 14.186 17.653 14.18l34.046-.013v-9.466c.003-9.13-8.374-12.687-17.51-12.682z"/>
        <path d="M251.4 215.27c-.892 0-1.75.11-2.583.315.477.75.752 1.637.752 2.59 0 2.674-2.165 4.844-4.84 4.844-1.21 0-2.318-.45-3.17-1.18-.523 1.257-.815 2.642-.815 4.09.003 5.886 4.777 10.653 10.66 10.65 5.893-.002 10.66-4.772 10.657-10.66-.002-5.883-4.77-10.654-10.664-10.652z"/>
        <path d="M128.117 212.37l33.334-.015.005 8.162c.002 9.137-7.656 16.457-16.79 16.462l-32.44.01-.004-11.726c0-9.133 6.76-12.892 15.898-12.896z" opacity=".1" enable-background="new"/>
        <path fill="#fff" d="M128.12 214.832l33.335-.016.002 7.968c.002 9.132-7.656 14.19-16.792 14.195l-32.438.01-.007-9.465c0-9.132 6.764-12.692 15.9-12.694z"/>
        <path d="M137.243 215.316c-.892 0-1.75.11-2.585.315.48.75.756 1.64.756 2.59 0 2.675-2.166 4.845-4.836 4.845-1.214 0-2.322-.446-3.17-1.176-.523 1.256-.816 2.64-.814 4.09.003 5.884 4.776 10.654 10.66 10.652 5.892-.002 10.66-4.776 10.658-10.66-.007-5.884-4.78-10.657-10.67-10.654z"/>
        <path d="M284.614 204.956c8.098 0 14.704 6.395 14.704 14.432v16.185c0 8.04-6.606 16.16-14.704 16.16h-58.518c-8.1 0-15.405-8.12-15.405-16.16v-16.185c0-8.037 7.31-14.432 15.407-14.432h58.45m.068-7.384h-58.518c-12.012 0-22.79 9.862-22.79 21.815v16.185c0 11.36 10.32 23.545 22.79 23.545h58.518c12.467 0 22.088-12.186 22.088-23.545v-16.185c0-11.952-10.075-21.815-22.088-21.815zm-124.628 7.384c8.097 0 13.78 6.395 13.78 14.432v16.187c0 8.04-5.684 16.157-13.78 16.157h-56.11c-8.096 0-13.812-8.12-13.812-16.157v-16.187c0-8.037 5.716-14.432 13.813-14.432h55.117m.992-7.384h-56.11c-12.01 0-21.197 9.862-21.197 21.815v16.187c0 11.36 8.73 23.543 21.198 23.543h56.11c12.467 0 21.164-12.186 21.164-23.543v-16.187c0-11.952-9.15-21.815-21.165-21.815z" opacity=".2"/>
        <path fill="none" stroke="#000" stroke-width="2" stroke-miterlimit="10" d="M207.222 224.406c-8.37-8.368-21.91-8.368-30.278 0"/>
        <path d="M286.68 202.495c8.282 0 15.1 5.485 15.1 13.77v16.686c0 8.288-6.817 16.32-15.1 16.32h-59.855c-8.28 0-16.133-8.032-16.133-16.32v-16.683c0-8.285 7.848-13.77 16.133-13.77h60.185m-.33-4.924h-59.855c-10.984 0-21.058 7.708-21.058 18.693v16.685c0 10.568 9.654 21.24 21.058 21.24h59.855c11.404 0 20.022-10.67 20.022-21.24v-16.684c0-10.985-9.036-18.693-20.022-18.693z"/>
        <path fill="#fff" d="M301.78 215.59c0-7.232-6.66-13.095-14.873-13.095h-61.342c-8.214 0-14.872 5.862-14.872 13.094v20.584c0 7.233 6.658 13.095 14.872 13.095h61.342c8.213 0 14.872-5.86 14.872-13.096V215.59z" opacity=".3" enable-background="new"/>
        <path fill="#fff" d="M236.695 202.495l-20.168 43.09c2.572 1.996 5.79 3.685 9.298 3.685h20.81l21.394-46.774h-31.336z" opacity=".2"/>
        <path d="M159.202 202.495c8.285 0 14.565 5.485 14.565 13.77v16.686c0 8.288-6.28 16.32-14.565 16.32h-57.39c-8.286 0-14.21-8.032-14.21-16.32v-16.683c0-8.285 5.927-13.77 14.21-13.77h57.184m.206-4.924h-57.39c-10.985 0-19.132 7.708-19.132 18.693v16.685c0 10.568 7.73 21.24 19.13 21.24h57.392c11.403 0 19.488-10.67 19.488-21.24v-16.684c0-10.985-8.502-18.693-19.488-18.693z"/>
        <path fill="#fff" d="M173.767 215.59c0-7.232-6.66-13.095-14.872-13.095h-56.422c-8.212 0-14.872 5.862-14.872 13.094v20.584c0 7.233 6.66 13.095 14.874 13.095h56.422c8.212 0 14.872-5.86 14.872-13.096V215.59z" opacity=".3" enable-background="new"/>
        <path fill="#fff" d="M121.526 202.495l-20.17 43.09c2.573 1.996 5.793 3.685 9.298 3.685h20.81l21.394-46.774h-31.332z" opacity=".2"/>
        <path fill="#DDA37C" d="M213.975 289.48c0 8.156-12.64 12.306-22.157 12.306s-22.156-4.15-22.156-12.307"/>
    </g>
</symbol>
<symbol id="delete_icon" viewBox="0 0 512 512">
    <path d="M437.5 386.6L306.9 256l130.6-130.6c14.1-14.1 14.1-36.8 0-50.9-14.1-14.1-36.8-14.1-50.9 0L256 205.1 125.4 74.5c-14.1-14.1-36.8-14.1-50.9 0-14.1 14.1-14.1 36.8 0 50.9L205.1 256 74.5 386.6c-14.1 14.1-14.1 36.8 0 50.9 14.1 14.1 36.8 14.1 50.9 0L256 306.9l130.6 130.6c14.1 14.1 36.8 14.1 50.9 0 14-14.1 14-36.9 0-50.9z"/>
</symbol>
<symbol id="parent_icon" viewBox="0 0 100 100">
    <path fill="#B47D28" d="M12.723 58.342c8.917 8.05 11.166 1.613 8.08-11.85-3.72-16.22-.546-36.673 18.783-40.822C54.552-5.72 89.114 12.906 79.45 44.872c-3.146 10.404-3.59 25.625 8.527 12.49-2.08 34.674-73.452 33.366-75.254.98z"/>
    <path fill="#F9D2A7" d="M22.438 84.38c3.355-3.363 9.782-4.42 11.07-4.878 8.93-3.15 6.31-11.66 5.598-19.857h22.15c-.708 8.196.488 18.053 5.598 19.857 5.11 1.8 10.698 4.122 12.748 5.064-4.172 20.666-52.634 20.552-57.164-.185z"/>
    <path fill="#DAAE80" d="M39.913 69.816c.173-3.104-.48-6.67-.77-10.172h23.01c-.28 3.362-.888 6.78-.786 9.793C58.304 72 54.63 73.53 50.405 73.53c-4.01 0-7.528-1.38-10.492-3.714z"/>
    <path fill="#F9D2A7" d="M74.516 34.534c5.666 4.57 3.674 18.733-3.277 19.87C67.275 63.238 59.99 69.86 50 69.86c-9.99 0-17.273-6.622-21.24-15.456-6.95-1.137-8.94-15.3-3.277-19.87C26.643 21.584 34.34 10.03 50 10.03s23.357 11.554 24.516 24.504z"/>
    <path fill="#DAAE80" d="M74.39 39.234c-1.536-.473-3.454 5.792-2.01 5.36 2.13-.638 1.206 3.907 2.142 3.29.93-.61 1.364-8.192-.133-8.65zM60.33 55.59c0 4.766-4.668 8.628-10.423 8.628-5.756 0-10.422-3.862-10.422-8.627H60.33zm-13.686-4.344c-.308-.313-.303-.815.01-1.124.31-.31.817-.305 1.124.01.205.208.498.38.845.5.377.13.82.202 1.306.202.454 0 .876-.074 1.24-.203.36-.124.66-.3.878-.51.314-.306.818-.3 1.124.015.307.316.3.817-.017 1.125-.38.37-.882.674-1.456.874-.537.188-1.14.294-1.77.294-.653 0-1.273-.104-1.826-.295-.582-.2-1.084-.504-1.46-.887z"/>
    <path fill="#fff" d="M57.703 55.59c0 1.314-1.25 2.377-7.796 2.377-6.543 0-7.797-1.063-7.797-2.376h15.593z"/>
    <path fill="#4D4D4D" d="M40.392 44.202c.758 0 1.376-1.24 1.376-2.756 0-1.52-.618-2.756-1.376-2.756-.756 0-1.374 1.237-1.374 2.756 0 1.517.618 2.756 1.374 2.756zm19.032 0c.758 0 1.375-1.24 1.375-2.756 0-1.52-.62-2.756-1.377-2.756s-1.373 1.237-1.373 2.756c0 1.517.616 2.756 1.374 2.756z"/>
    <path fill="#B47D28" d="M75.368 34.925s-3.006 3.335-5.07 5.66l-.687.46h-.9l1.194-4.89s1.583.045-.82-.93-15.896-4.14-27.166-15.14c-3.17-3.095-9.577 10.47-10.52 17.87-.336 2.63-.864 3.22-1.588 3.09s-9.955-15.336-7.372-18.67S39.074 5.432 56.375 8.932c4.53.917 8.857 2.085 11.375 4.193 7.95 6.658 9.11 14.6 8.167 18.042l-.55 3.758z"/>
    <path fill="#4F260B" d="M65.27 34.925h-8.974c-2.57 0-4.305 1.956-4.305 4.526v.4c-1.49-.49-2.684-.512-3.88-.07v-.328c0-2.57-1.922-4.525-4.494-4.525H34.64c-2.568 0-4.44 1.956-4.44 4.526v5.178c0 2.57 1.872 4.626 4.44 4.626h8.976c2.57 0 4.495-2.054 4.495-4.625v-2.625c1.196-.807 2.69-.757 3.883.148v2.48c0 2.57 1.735 4.624 4.304 4.624h8.977c2.57 0 4.63-2.054 4.63-4.625V39.45c0-2.57-2.06-4.526-4.63-4.526h-.002zM46.32 44.63c0 1.486-1.215 2.832-2.704 2.832h-8.974c-1.486 0-2.35-1.346-2.35-2.833v-5.18c0-1.487.863-2.735 2.35-2.735h8.975c1.488 0 2.705 1.248 2.705 2.735v5.177zm21.493 0c0 1.486-1.054 2.832-2.542 2.832h-8.973c-1.486 0-2.514-1.346-2.514-2.833v-5.18c0-1.487 1.027-2.735 2.514-2.735h8.976c1.487 0 2.54 1.248 2.54 2.735v5.177z" opacity=".3" enable-background="new"/>
    <path fill="none" stroke="#000" stroke-width="2" stroke-miterlimit="10" d="M52.564 40.52c-1.502-1.332-3.933-1.332-5.435 0"/>
    <path d="M65.27 35.82c1.49 0 2.84 1.16 2.84 2.647v5.177c0 1.488-1.35 2.624-2.84 2.624h-8.974c-1.486 0-2.813-1.137-2.813-2.624v-5.177c0-1.487 1.326-2.646 2.813-2.646h8.83m.145-1.79h-8.973c-2.472 0-4.604 1.966-4.604 4.44v5.176c0 2.473 2.132 4.415 4.604 4.415h8.975c2.474 0 4.632-1.94 4.632-4.414V38.47c0-2.474-2.158-4.44-4.63-4.44z"/>
    <path fill="#fff" d="M68.71 38.095c0-1.508-1.206-2.872-2.715-2.872H55.902c-1.51 0-2.716 1.363-2.716 2.872v6.25c0 1.51 1.207 2.82 2.716 2.82h10.093c1.51 0 2.714-1.312 2.714-2.82v-6.25zm-10.2-2.87l-4.275 11.253c.46.358 1.04.687 1.668.687h3.736l4.494-11.94H58.51z" opacity=".3" enable-background="new"/>
    <path d="M43.617 35.82c1.487 0 2.704 1.16 2.704 2.647v5.177c0 1.488-1.214 2.624-2.702 2.624H34.64c-1.485 0-2.648-1.137-2.648-2.624v-5.177c0-1.487 1.163-2.646 2.65-2.646h8.992m-.017-1.79H34.64c-2.47 0-4.44 1.966-4.44 4.44v5.176c0 2.473 1.97 4.415 4.44 4.415h8.976c2.473 0 4.496-1.94 4.496-4.414V38.47c0-2.474-2.022-4.44-4.495-4.44z"/>
    <path fill="#fff" d="M46.918 37.956c0-1.51-1.224-2.732-2.732-2.732H34.128c-1.51 0-2.732 1.224-2.732 2.732v6.178c0 1.51 1.224 2.732 2.732 2.732h10.057c1.51 0 2.733-1.224 2.733-2.732v-6.178zm-10.063-2.732L32.58 46.478c.46.358 1.04.687 1.668.687h3.735l4.496-11.94h-5.626z" opacity=".3" enable-background="new"/>
</symbol>
<symbol id="PS_icon" viewBox="0 0 24 24">
    <path fill="#556579" fill-rule="evenodd" d="M20.002 24H4.014c-1.104 0-1.998-.895-1.998-2V11.994c0-1.105.895-2.002 1.998-2.002h1v-3c0-3.87 3.13-7.005 6.994-7.005s6.995 3.136 6.995 7.004v3.003h1c1.103 0 1.997.896 1.997 2.002V22c0 1.104-.895 2-1.998 2zM16.005 6.99c0-2.21-1.79-4-3.997-4s-3.997 1.79-3.997 4v3.002h7.996v-3z" clip-rule="evenodd"/>
</symbol>
<symbol id="videos_icon" viewBox="0 0 136.367 135.463">
    <circle cx="68.184" cy="67.731" r="63.333" fill="#D52528"/>
    <path fill="#CC222D" d="M112.967 22.946c24.732 24.734 24.734 64.834 0 89.568-24.732 24.732-64.835 24.733-89.568 0l89.566-89.568z"/>
    <path fill="#BA202E" d="M130.243 80.42L98.9 49.074l-36.967 4.21L39.573 87.9l41.78 41.782c24.568-5.197 43.88-24.628 48.89-49.265z"/>
    <path id="YouTube__x28_alt_x29__2_" fill="#fff" fill-rule="evenodd" d="M101.327 55.514c0-5.31-4.3-9.612-9.606-9.612H46.65c-5.306 0-9.606 4.304-9.606 9.612V81.29c0 5.308 4.3 9.61 9.606 9.61h45.07c5.306 0 9.606-4.303 9.606-9.61V55.513zm-38.57 23.76v-24.21L81.113 67.17 62.756 79.274z" clip-rule="evenodd"/>
</symbol>
<symbol id="dic_icon" viewBox="0 0 100 100">
    <path fill="#0EA89E" d="M0 0h100v100H0z"/>
    <path fill="#067D6D" d="M72.583 30.044L100 97.5v2.5H31.12L19 78.32l53.66-47.567"/>
    <path fill="#DC4849" d="M19 74.065h54.627v4.255H19z"/>
    <path fill="#C94041" d="M73.627 74.17L19 74.065l9.136-5.964h53.427zm7.936-1.815l-7.936 5.965v-4.276l7.936-5.943z"/>
    <path fill="#fff" d="M81.658 71.587l-6.835 5.136v-2.607L81.65 68.9z"/>
    <path fill="#EDC74D" d="M38.727 74.065h13.54v4.255h-13.54z"/>
    <path fill="#C4A640" d="M38.727 74.17h13.54l9.886-5.506H48.615z"/>
    <path fill="#354E5D" d="M27.168 58.442h43.74V73.46h-43.74z"/>
    <path fill="#243A47" d="M70.907 58.548h-43.74l7.76-5.694h43.665z"/>
    <path fill="#2C4451" d="M78.592 67.87l-7.685 5.59V58.442l7.685-5.588z"/>
    <path fill="#fff" d="M78.666 66.546l-6.58 4.716V59.016l6.58-4.966z"/>
    <path fill="#40B09B" d="M32.434 58.46h1.75v15.017h-1.75z"/>
    <path fill="#EDC74D" d="M38.022 58.46h1.753v15.017h-1.753z"/>
    <path fill="#E07A3C" d="M43.613 58.46h1.75v15.017h-1.75z"/>
    <path fill="#DC4849" d="M49.202 58.46h1.753v15.017h-1.753z"/>
    <path fill="#40B09B" d="M32.98 51.985h37.73v5.506H32.98z"/>
    <path fill="#369382" d="M70.712 52.09h-37.73l6.757-4.694h37.656z"/>
    <path fill="#3CA08D" d="M77.397 52.902l-6.685 4.59v-5.507l6.685-4.59z"/>
    <path fill="#fff" d="M77.47 51.58l-5.576 3.713v-2.735l5.576-3.965z"/>
    <path fill="#354E5D" d="M38.12 52.09h3.587v5.4H38.12z"/>
    <path fill="#EDC74D" d="M41.333 52.09h1.533v5.4h-1.533zm-8.273-4.694h37.73v4.254H33.06z"/>
    <path fill="#C4A640" d="M70.79 47.5l-37.73-.104 6.756-4.714h37.66z"/>
    <path fill="#D7B544" d="M77.475 47.062L70.79 51.65v-4.275l6.685-4.693z"/>
    <path fill="#fff" d="M77.57 46.293l-5.585 3.76v-2.606l5.578-3.965z"/>
    <path fill="#354E5D" d="M39.124 47.396h5.37v4.254h-5.37z"/>
    <path fill="#243A47" d="M39.124 47.396h5.37l5.258-4.685h-5.37z"/>
    <path fill="#DC4849" d="M33.06 43.035h33.39V46.8H33.06z"/>
    <path fill="#B83A3A" d="M66.45 43.126l-33.39-.09 5.98-4.173h33.324z"/>
    <path fill="#C94041" d="M72.364 42.74L66.45 46.8v-3.784l5.914-4.153z"/>
    <path fill="#fff" d="M72.448 42.06l-4.94 3.326V43.08l4.935-3.51z"/>
    <path fill="#EDC74D" d="M43.18 43.035h.813V46.8h-.813zm-5.565 0h.81V46.8h-.81z"/>
    <path fill="#354E5D" d="M38.426 43.035h4.753V46.8h-4.755z"/>
    <path fill="#C4A640" d="M43.992 43.035h-.812l4.652-4.146h.812zm-5.566 0h-.81l4.65-4.146h.812z"/>
    <path fill="#243A47" d="M38.426 43.035h4.754l4.652-4.146h-4.754z"/>
    <path fill="#E07A3C" d="M33.146 38.714h33.39v3.765h-33.39z"/>
    <path fill="#BA642E" d="M66.536 38.806l-33.39-.092 5.98-4.172H72.45z"/>
    <path fill="#CB6F36" d="M72.45 38.418l-5.914 4.06v-3.783l5.915-4.153z"/>
    <path fill="#fff" d="M72.535 37.738l-4.94 3.327v-2.307l4.935-3.508z"/>
    <path fill="#EDC74D" d="M43.265 38.714h.814v3.765h-.816zm-5.565 0h.814v3.765H37.7z"/>
    <path fill="#354E5D" d="M38.513 38.714h4.752v3.765h-4.752z"/>
    <path fill="#C4A640" d="M44.08 38.714h-.815l4.653-4.147h.813zm-5.567 0H37.7l4.653-4.147h.812z"/>
    <path fill="#243A47" d="M38.513 38.714h4.752l4.653-4.147h-4.753z"/>
    <path fill="#DC4849" d="M33.275 34.216h33.392v3.765H33.275z"/>
    <path fill="#B83A3A" d="M66.667 34.31l-33.392-.094 5.982-4.172h33.326z"/>
    <path fill="#C94041" d="M72.583 33.92l-5.916 4.06V34.2l5.916-4.154z"/>
    <path fill="#fff" d="M72.666 33.24l-4.94 3.328V34.26l4.934-3.507z"/>
    <path fill="#EDC74D" d="M43.396 34.216h.813v3.765h-.815zm-5.564 0h.81v3.765h-.81z"/>
    <path fill="#354E5D" d="M38.643 34.216h4.753v3.765h-4.753z"/>
    <path fill="#C4A640" d="M44.21 34.216h-.814l4.652-4.146h.813zm-5.567 0h-.81l4.65-4.146h.812z"/>
    <path fill="#243A47" d="M38.643 34.216h4.753l4.652-4.146h-4.753z"/>
    <path fill="#fff" d="M64.902 23.452c-.213.1 1.777-.388 2.394-.08.577.288.9 1.666.584 2.197-.318.53-1.452.83-1.452.83l-1.526-2.95zm-23.946 0c.213.1-1.777-.388-2.393-.08-.578.288-.903 1.666-.584 2.197s1.45.89 1.45.89l1.525-3.01zm23.807-.44c-2.604-.828-6.433-.46-8.512.54-1.776.856-2.99.868-3.306.854V24.4h-.03v.005c-.315.015-1.53.002-3.306-.854-2.08-1-5.876-1.35-8.513-.657-2.984.785-2.316 5.88-1.316 7.88 1 2 2.926 2.534 5.205 2.562s5.015-.946 5.932-3.39c.386-1.032.975-3.394 2.01-3.5 1.036.105 1.626 2.467 2.013 3.5.92 2.444 3.655 3.417 5.934 3.39s4.207-.563 5.205-2.562c1-2 1.622-6.824-1.318-7.76zM49.3 30.638c-1.58 1.85-4.89 2.627-7.125 1.26-2.237-1.365-3.255-5.645-.558-7.707 2.622-2.004 8.452.21 8.952 1.558s.307 3.043-1.27 4.89zm14.383 1.26c-2.235 1.367-5.544.588-7.123-1.26s-1.773-3.543-1.27-4.89c.5-1.35 6.33-3.563 8.95-1.557 2.698 2.065 1.68 6.345-.557 7.71z"/>
    <path d="M49.3 30.638c-1.58 1.85-4.89 2.627-7.125 1.26-2.237-1.365-3.255-5.645-.558-7.707 2.622-2.004 8.452.21 8.952 1.558s.307 3.043-1.27 4.89zM63.683 31.9c-2.235 1.365-5.544.586-7.123-1.262s-1.773-3.543-1.27-4.89c.5-1.35 6.33-3.563 8.95-1.557 2.698 2.065 1.68 6.345-.557 7.71z" opacity=".5" fill="#fff"/>
</symbol>
<symbol id="adwstore_icon" viewBox="0 0 100 100">
    <path fill="#FFCB06" d="M0 0h100v100H0z"/>
    <path fill="#E1AE25" d="M79.26 35.063L100 77v23H61L35.14 61.277l-6.517-25.12z"/>
    <path fill="none" d="M49 50h12v8H49zm16 0v8h5.39l1.692-8zm-20-4v-7H33.237l1.985 7zm20 0h8.096l1.352-7H65zm-20 4h-8.292l2.48 8H45zm4-11h12v7H49z"/>
    <path fill="#fff" d="M79.26 35.063C78.81 34.503 78.124 34 77.4 34H31.75l1.487 5H45v7h-9.778l-1.984-6.622-1.488-4.907-1.956-6.54c-.314-1-1.24-1.93-2.288-1.93H14.35c-1.32 0-2.394 1.178-2.394 2.5 0 1.323 1.072 2.5 2.394 2.5h11.394L35.14 61.28c.312 1 1.237 1.723 2.286 1.723H70.72c.285 0 .62.446 1.002.527.167.036.334.073.5.073 1.105 0 2.1-.763 2.34-1.89l5.183-24.563c.15-.705-.03-1.524-.484-2.084zM65 58v-8h7.082l-1.69 8H65zm-4 0H49v-8h12v8zm12.096-12H65v-7h9.448l-1.352 7zM49 39h12v7H49v-7zM36.708 50H45v8h-5.813l-2.48-8z"/>
    <circle cx="46.755" cy="68.214" r="4.369" fill="#fff"/>
    <circle cx="60.924" cy="68.214" r="4.369" fill="#fff"/>
</symbol>
<symbol id="ideas_icon" viewBox="0 0 100 100">
    <path fill="#F8E7B2" d="M0 0h100v100H0z"/>
    <path fill="#E6D6A8" d="M56.768 22.466L100 62.946V100H51.242l-14.28-46.992z"/>
    <path fill="#5E4231" d="M43.123 27.146h14.194v3.04H43.123z"/>
    <path fill="#EEA630" d="M50.22 64.83c4.057 0 8.11-2.027 10.14-4.056 2.026-3.04 4.054-6.082 4.054-10.138 0-2.027-1.014-4.056-1.014-5.07-2.027-5.067-4.055-9.123-6.082-13.177H43.124c-2.027 5.066-4.055 8.11-6.082 13.176-1.014 2.027-1.014 3.042-1.014 5.07 0 4.055 2.027 8.11 4.055 10.137 3.04 2.03 6.08 4.056 10.138 4.056z"/>
    <path fill="#5E4231" d="M53.263 20.05c0-2.028-1.014-3.042-2.028-3.042V-.227h-2.028v17.234c-1.014 1.014-2.026 2.027-2.026 3.042h6.083z"/>
    <path fill="#EEA630" d="M32.985 47.595c0-1.014-1.014-2.027-2.027-2.027h-11.15c-1.015 0-2.03 1.014-2.03 2.027 0 1.015 1.016 2.028 2.03 2.028h11.15c1.014 0 2.027-1.014 2.027-2.028z"/>
    <path fill="#5E4231" d="M54.276 22.077h-8.112c-2.026 0-3.04 1.014-3.04 3.04h14.193c0-2.026-1.014-3.04-3.04-3.04z"/>
    <path fill="#EEA630" d="M50.22 66.857c-1.014 0-2.027 1.014-2.027 2.027v9.123c0 1.013 1.014 2.027 2.028 2.027 1.016 0 2.03-1.015 2.03-2.027v-9.123c0-1.013-1.015-2.027-2.03-2.027zm26.358-6.083l-9.124-5.068c-1.014 0-2.027 0-2.027 1.014s0 2.028 1.014 2.028l9.126 5.068c1.014 0 2.027 0 2.027-1.014s0-2.028-1.014-2.028zm3.042-16.22H68.467c-1.014 0-2.027 1.014-2.027 2.027s1.015 2.03 2.028 2.03h11.15c1.017 0 2.03-1.015 2.03-2.03s-1.013-2.025-2.03-2.025zM60.358 64.83c-1.014 0-1.014 1.014-1.014 2.027l4.055 7.096c0 1.014 1.012 1.014 2.025 1.014s1.014-1.014 1.014-2.028l-4.056-7.097c0-1.014-1.013-1.014-2.027-1.014zm-28.386-9.124l-8.11 5.068c-1.014 0-1.014 1.015-1.014 2.028s1.014 1.014 2.027 1.014l8.11-5.068C34 58.748 34 57.733 34 56.72s-1.015-1.014-2.028-1.014zm8.11 8.11c-1.014 0-2.027 0-2.027 1.014L34 71.926c0 1.013 0 2.027 1.014 2.027s2.027 0 2.027-1.015l4.057-7.095c0-1.013 0-2.027-1.014-2.027z"/>
    <path fill="#F8E7B2" d="M58.053 54.13c.173.217.492.253.708.08.22-.174.255-.49.083-.708-.09-.11-.19-.22-.3-.325l-5.378-16.403c-.07-.212-.267-.348-.48-.348-.05 0-.103.01-.156.026-.267.087-.41.37-.32.637l4.964 15.152c-1.205-.588-2.713-.857-3.942-.465-.267.084-.507.196-.727.335-.6-.394-1.337-.63-2.117-.63-.924 0-1.796.297-2.458.825-.368-.197-.796-.36-1.273-.48-1.41-.358-2.656-.27-3.695.236l4.91-14.976c.086-.266-.06-.55-.32-.636-.053-.017-.107-.024-.158-.024-.213 0-.41.134-.48.346l-5.384 16.43c-.045.054-.097.1-.14.155-.172.218-.135.536.085.707.22.172.536.134.707-.085.974-1.246 2.398-1.64 4.228-1.178.207.053.508.144.817.284-.305.477-.455 1.02-.43 1.567.044 1.096.417 1.9 1.02 2.206.353.18.744.156 1.07-.06.53-.355.79-1.16.71-2.208-.05-.636-.327-1.2-.803-1.665.825-.516 2.063-.57 2.95-.095-.336.476-.532 1.073-.57 1.772-.055.978.246 1.77.806 2.117.358.223.787.234 1.15.027.57-.323.886-1.098.87-2.124-.01-.664-.27-1.286-.693-1.8.073-.033.15-.062.232-.09 1.504-.475 3.7.373 4.515 1.395zm-9.73 1.833c-.01.007-.013.01-.02.01-.01 0-.02-.002-.032-.01-.144-.074-.432-.453-.47-1.35-.013-.34.08-.674.27-.98.28.268.487.61.52 1.04.06.777-.124 1.197-.265 1.29zm4.307-.09c-.018.012-.036.018-.056.018-.018 0-.04-.006-.065-.02-.145-.09-.375-.444-.333-1.206.026-.48.144-.878.35-1.19.284.34.455.746.462 1.17.01.803-.22 1.15-.36 1.23z"/>
</symbol>
<symbol id="Teacher_career_icon" viewBox="0 0 100 100">
    <path fill="#69A242" d="M0 0h100v100H0z"/>
    <path fill="#59863D" d="M77.964 37.023L100 59.203v40.505H44.098L21.053 74.025z"/>
    <path d="M58.164 66.826H40.852v-7.62h-19.8v14.822h56.912V59.205h-19.8zm-14.066-7.62h10.82v4.374H44.1zM63.41 26.26h-13.9v4.87h9.033v5.895H49.51V55.96h28.454V37.024H63.41V26.26zm-13.902 0H35.605v10.765H21.053V55.96h28.455V37.024h-9.033V31.13h9.033v-4.87z" fill="#FAFAFC"/>
</symbol>
<symbol id="Teacher_career2_icon" viewBox="0 0 100 100">
    <path fill="#E7E7DF" d="M0 0h100v100H0z"/>
    <path fill="#CBC9BD" d="M77.964 37.023L100 59.203v40.505H44.098L21.053 74.025z"/>
    <path d="M58.164 66.826H40.852v-7.62h-19.8v14.822h56.912V59.205h-19.8zm-14.066-7.62h10.82v4.374H44.1zM63.41 26.26h-13.9v4.87h9.033v5.895H49.51V55.96h28.454V37.024H63.41V26.26zm-13.902 0H35.605v10.766H21.053V55.96h28.455V37.025h-9.033V31.13h9.033v-4.87z" fill="#0F3754"/>
    <circle cx="74.524" cy="68.904" r="10.938" fill="#DAE6F1" stroke="#0C3753" stroke-width=".25" stroke-miterlimit="10"/>
    <path fill="#0F3754" d="M73.93 74.486v-8.343h-1.347v-1.465h3.086v9.808h-1.74zm.952-13.516c.3 0 .554.105.765.316s.315.462.315.755c0 .3-.104.557-.315.767-.21.21-.466.316-.765.316-.293 0-.545-.105-.756-.316-.21-.21-.315-.465-.315-.765 0-.298.106-.55.314-.76.206-.206.46-.31.76-.31z"/>
</symbol>
<symbol id="pre_lesson_icon" viewBox="0 0 100 100">
    <path fill="#0EA89E" d="M0 0h100v100H0z"/>
    <path fill="#05574F" d="M85.25 31.023L100 70.633V100H36.27L18.38 72.523z"/>
    <path fill="#F4EBE1" d="M51.815 72.523c-11.028-2.284-22.407-2.284-33.436 0V30c11.026-2.284 22.405-2.284 33.434 0v42.523z"/>
    <path fill="#0EA89E" d="M30.686 45.818c-2.726.146-5.445.428-8.15.845V34.45c2.705-.418 5.424-.7 8.15-.846v12.214z"/>
    <path fill="#3F4953" d="M46.567 35.76c-4.626-.65-9.294-.904-13.953-.763v-1.473c4.66-.14 9.327.114 13.953.764v1.473zm0 2.94c-4.626-.65-9.294-.904-13.953-.765v-1.47c4.66-.14 9.327.113 13.953.764v1.47zm0 2.94c-4.626-.65-9.294-.904-13.953-.765v-1.47c4.66-.14 9.327.114 13.953.765v1.47zm0 2.94c-4.626-.65-9.294-.905-13.953-.766v-1.47c4.66-.14 9.327.115 13.953.766v1.47zm0 2.94c-4.626-.65-9.294-.905-13.953-.766v-1.47c4.66-.14 9.327.114 13.953.765v1.47zm0 2.94c-7.936-1.115-15.993-1.067-23.918.144v-1.47c7.923-1.212 15.98-1.26 23.916-.145v1.47zm0 2.94c-7.936-1.115-15.993-1.067-23.918.144v-1.47c7.923-1.212 15.98-1.26 23.916-.145v1.47zm0 2.94c-7.936-1.115-15.993-1.067-23.918.144v-1.47c7.923-1.212 15.98-1.26 23.916-.145v1.47zm0 2.938c-7.936-1.115-15.993-1.067-23.918.144v-1.47c7.923-1.21 15.98-1.258 23.916-.143v1.467zm0 2.94c-7.936-1.115-15.993-1.067-23.918.144v-1.468c7.923-1.21 15.98-1.26 23.916-.144v1.468zm0 2.942c-7.936-1.115-15.993-1.067-23.918.144v-1.47c7.923-1.212 15.98-1.26 23.916-.145v1.47z"/>
    <path fill="#F4EBE1" d="M85.25 72.523c-11.028-2.284-22.406-2.284-33.435 0V30c11.028-2.284 22.406-2.284 33.435 0v42.523z"/>
    <path fill="#3F4953" d="M80.004 35.76c-7.937-1.114-15.995-1.066-23.92.145v-1.473c7.925-1.21 15.983-1.258 23.92-.143v1.47zm0 2.94c-7.937-1.115-15.995-1.067-23.92.144v-1.47c7.925-1.212 15.983-1.26 23.92-.145v1.47zm0 2.94c-7.937-1.115-15.995-1.067-23.92.144v-1.47c7.925-1.21 15.983-1.26 23.92-.144v1.47zm0 2.94c-7.937-1.116-15.995-1.068-23.92.143v-1.47c7.925-1.21 15.983-1.258 23.92-.143v1.47zm0 2.94c-7.937-1.116-15.995-1.068-23.92.143v-1.47c7.925-1.21 15.983-1.26 23.92-.144v1.47zm0 2.94c-7.937-1.115-15.995-1.067-23.92.144v-1.47c7.925-1.212 15.983-1.26 23.92-.145v1.47zm0 2.94c-7.937-1.115-15.995-1.067-23.92.144v-1.47c7.925-1.212 15.983-1.26 23.92-.145v1.47zm0 2.94c-7.937-1.115-15.995-1.067-23.92.144v-1.47c7.925-1.212 15.983-1.26 23.92-.145v1.47zm0 2.938c-7.937-1.115-15.995-1.067-23.92.144v-1.47c7.925-1.21 15.983-1.258 23.92-.143v1.467zm0 2.94c-7.937-1.115-15.995-1.067-23.92.144v-1.468c7.925-1.21 15.983-1.26 23.92-.144v1.468zm0 2.942c-7.937-1.115-15.995-1.067-23.92.144v-1.47c7.925-1.212 15.983-1.26 23.92-.145v1.47z"/>
</symbol>
<symbol id="search_school_icon" viewBox="0 0 100 100">
    <path fill="#FAAC18" d="M0 0h100v100H0z"/>
    <path fill="#DC8D27" d="M68.833 40.167L100 80.834v18.874H44.098L18.615 75.623z"/>
    <path fill="#0F3754" d="M79.135 68.84V43.383L53.072 32.436v-4.97h2.523v2.263h8.914v-7.846h-4.53V19.62h-6.91v-.02c0-1.24-1.03-2.243-2.265-2.243-1.242 0-2.264 1.002-2.264 2.244v12.596L20.88 43.383V68.84h-2.265v6.783H45.22V58.857h11.167v16.766H81.4V68.84h-2.265zM33.78 58.857h6.12v5.992h-6.12v-5.994zm-9.712 0h6.254v5.992h-6.254v-5.994zm25.94-8.98c-2.428 0-4.395-1.967-4.395-4.393 0-2.43 1.967-4.395 4.395-4.395s4.393 1.963 4.393 4.393c0 2.426-1.963 4.393-4.39 4.393zm20.224 8.98h6.244v5.992h-6.244v-5.994zm-9.712 0h6.254v5.992H60.52v-5.994zm0 0"/>
    <path fill="#D0EAF9" d="M86.975 83.244c0 .004 0 .004-.003.007-1.03 1.026-2.7 1.02-3.727-.007l-8.033-8.075c-1.026-1.03-1.022-2.694.004-3.723.003 0 .003 0 .003-.004 1.03-1.026 2.7-1.022 3.724.01l8.036 8.074c1.025 1.027 1.024 2.696-.005 3.72z"/>
    <path fill="#fff" d="M85.828 83.193c-.394.397-1.04.393-1.44-.003l-8.033-8.075c-.394-.397-.394-1.044 0-1.44.402-.4 1.05-.395 1.448.003l8.03 8.07c.4.397.4 1.045 0 1.442l-.005.003z"/>
    <path fill="#D0EAF9" d="M74.1 70.29c-1.95 1.95-4.545 3.027-7.298 3.022-5.68-.01-10.292-4.638-10.278-10.317.003-2.736 1.075-5.317 3.016-7.26 1.954-1.95 4.544-3.022 7.3-3.02 2.747.004 5.33 1.082 7.272 3.033 1.944 1.95 3.015 4.535 3.008 7.286-.007 2.737-1.077 5.313-3.02 7.257z"/>
    <path fill="#fff" d="M66.802 72.678c-2.577-.004-5.003-1.015-6.827-2.845-1.825-1.83-2.825-4.258-2.82-6.835.005-2.573 1.01-4.993 2.834-6.816 1.824-1.826 4.25-2.832 6.824-2.832h.022l-.004 1.195h-.02c-2.257 0-4.38.88-5.98 2.48-1.597 1.6-2.48 3.72-2.485 5.974-.003 2.26.875 4.385 2.474 5.99 1.6 1.602 3.725 2.487 5.983 2.493l-.002 1.194z"/>
    <path fill="none" stroke="#154F78" stroke-width=".765" d="M73.232 69.42"/>
    <path fill="#FCBF14" d="M61.405 57.597c-1.45 1.45-2.245 3.366-2.25 5.404-.007 4.228 3.423 7.67 7.648 7.68 2.052.004 3.98-.797 5.436-2.252 1.445-1.443 2.24-3.36 2.243-5.397.006-2.044-.79-3.97-2.24-5.42-1.443-1.454-3.367-2.256-5.41-2.26-2.05 0-3.978.797-5.43 2.248z"/>
    <path fill="#F89A1F" d="M72.245 57.608c-1.444-1.454-3.368-2.256-5.412-2.26-.577 0-1.143.062-1.69.186-.834.377-1.604.905-2.272 1.573-1.442 1.444-2.24 3.366-2.243 5.4-.01 4.23 3.427 7.673 7.65 7.68.576 0 1.142-.062 1.688-.187.838-.376 1.605-.906 2.275-1.574 1.446-1.443 2.24-3.36 2.244-5.397.006-2.047-.79-3.97-2.24-5.423z"/>
    <path fill="#D0EAF9" d="M76.252 72.523c-.517.514-1.352.514-1.864-.004l-1.64-1.695c-.513-.514-.513-1.348.002-1.86l.002-.003c.516-.51 1.348-.51 1.863.003l1.64 1.693c.512.518.512 1.35 0 1.863h-.003z"/>
</symbol>
<symbol id="parent_info_icon" viewBox="0 0 100 100">
    <path fill="#D14443" d="M0 0h100v100H0z"/>
    <defs>
        <path id="SVGID_1_" d="M10 10h90v90H10z"/>
    </defs>
    <clipPath id="SVGID_2_">
        <use xlink:href="#SVGID_1_" overflow="visible"/>
    </clipPath>
    <path fill="#AF3839" d="M100 38.604L72.48 22.192l1.126 8.02h-1.272v1.097h-1.747V67.59h-39.54l-1.137 11.46 29.646 28.256c22.31-2.9 43.137 5.056 43.137-18.045 0-5.498-.904-45.783-2.693-50.66z" clip-path="url(#SVGID_2_)"/>
    <path fill="#F5891F" d="M65.85 65.805V30.38H32.207l-5.093 44.164c-.236 2.06 1.254 3.94 3.315 4.177l34.71 4.003c2.056.237 3.94-1.254 4.174-3.313l1.57-13.605h-5.036z"/>
    <path fill="#FFFDF3" d="M72.8 76.44c0 2.075-1.697 3.772-3.772 3.772H34.09c-2.074 0-3.77-1.696-3.77-3.77V24.41c0-2.072 1.696-3.77 3.77-3.77h34.938c2.074 0 3.77 1.698 3.77 3.77v52.03z"/>
    <path fill="#F1F1DF" d="M69.028 20.643H51.44v59.57h17.59c2.074 0 3.77-1.697 3.77-3.772V24.415c0-2.074-1.695-3.77-3.77-3.77z"/>
    <path fill="#DBD6D3" d="M35.11 29.44h33.053v5.278H35.11zm0 10.68h33.053v5.28H35.11zm0 10.307h33.053v5.278H35.11zm0 10.683h33.053v5.276H35.11zm4.728-38.34c0 .695-.562 1.257-1.257 1.257-.69 0-1.254-.562-1.254-1.256v-4.02c0-.693.563-1.256 1.256-1.256.696 0 1.258.563 1.258 1.257v4.02zm5.306-.09c0 .696-.563 1.258-1.257 1.258-.692 0-1.257-.563-1.257-1.257v-4.02c0-.694.564-1.256 1.257-1.256.694 0 1.257.562 1.257 1.257v4.02zm5.19.09c0 .695-.564 1.257-1.258 1.257s-1.257-.562-1.257-1.256v-4.02c0-.693.56-1.256 1.255-1.256s1.257.563 1.257 1.257v4.02zm5.463 0c0 .695-.56 1.257-1.255 1.257-.694 0-1.257-.562-1.257-1.256v-4.02c0-.693.563-1.256 1.257-1.256s1.255.563 1.255 1.257v4.02zm5.22 0c0 .695-.565 1.257-1.26 1.257-.694 0-1.257-.562-1.257-1.256v-4.02c0-.693.563-1.256 1.258-1.256.693 0 1.258.563 1.258 1.257v4.02zm5.276 0c0 .695-.563 1.257-1.257 1.257s-1.257-.562-1.257-1.256v-4.02c0-.693.56-1.256 1.255-1.256s1.257.563 1.257 1.257v4.02z"/>
    <path fill="#C9C4C2" d="M51.44 29.44h16.723v5.278H51.44zm0 10.68h16.723v5.28H51.44zm0 10.307h16.723v5.278H51.44zm0 10.683h16.723v5.276H51.44z"/>
</symbol>
<symbol id="parent_follow_icon" viewBox="0 0 100 100">
    <path fill="#354E5D" d="M0 0h100v100H0z"/>
    <path fill="#273A44" d="M79.515 50L100 80.717V100H62.353l-15.4-15.398V58.984h13.05S79.513 68.5 79.513 50z"/>
    <g fill-rule="evenodd" clip-rule="evenodd">
        <path fill="#FAAC18" d="M38.646 62.266c5.028 6.39 6.882 14.72 7.136 18.115.254 3.398 2.2 3.715 6.134 3.2s7.442-1.356 3.154-9.367c-4.287-8.013-12.478-18.18-16.08-20.945s-4.94 4.457-.344 8.998z"/>
        <path fill="#EE6358" d="M56.422 77.143c-.314-.852-.758-1.823-1.35-2.93-4.29-8.012-12.48-18.18-16.08-20.945s-4.94 4.457-.346 8.998c5.028 6.39 6.882 14.72 7.136 18.115 2.555-1.92 7.982-3.762 10.64-3.236z"/>
        <path fill="#5995CA" d="M27.897 38.638L24.69 40.39l-4.028 16.888 14.48 9.588 3.544-.91 9.095-19.362z"/>
        <path fill="#FAAC18" d="M65.894 18.64c4.59 3.022 9.045 8.778 11.927 16.08 4.98 12.618 3.377 25.073-3.583 27.82-1.1.434-2.267.6-3.473.52-1.654-.107-3.277-.174-4.87-.204v-5.802c2.764 2.222 5.424 3.23 7.178 2.535 5.432-2.145 6.317-12.79 1.98-23.777-2.33-5.91-5.698-10.713-9.156-13.56V18.64zm-9.69-1.793c2.932-1.157 6.347-.406 9.69 1.794v3.615c-2.975-2.446-6.017-3.447-8.526-2.457-3.947 1.56-4.684 13.83-.92 23.768 2.204 5.815 5.91 10.647 9.445 13.49v5.8c-10.13-.19-19.054 1.125-27.208 3.102-2.537-1.17-5.313-4.198-7.54-8.328V36.734c7.325-4.454 14.933-10.194 22.17-17.902.828-.878 1.79-1.553 2.887-1.985zm-25.06 50.925c.64.023 1.26-.072 1.844-.304.714-.205 1.432-.406 2.155-.603-1.38-.994-2.735-2.31-3.998-3.885v4.792zm0-10.144c-.637-1.18-1.23-2.45-1.76-3.793-2.38-6.033-2.84-11.87-1.486-15.197 1.075-.607 2.157-1.24 3.247-1.902v20.892zm0 5.353c-1.77-2.21-3.36-4.94-4.58-8.03-2.09-5.293-2.662-10.548-1.873-14.56-.664.352-1.326.693-1.982 1.026-3.97 1.566-4.884 8.668-2.044 15.86 2.42 6.135 6.787 10.355 10.482 10.496v-4.79z"/>
        <path fill="#EE6358" d="M65.894 18.643c4.333 2.853 8.546 8.14 11.43 14.868.128.31.256.62.38.937 5.238 13.272 2.726 25.46-2.968 27.707-2.438.962-5.623.138-8.842-2.1v-3c2.763 2.223 5.423 3.23 7.177 2.536 5.433-2.144 6.318-12.788 1.98-23.776-2.33-5.91-5.697-10.713-9.155-13.56v-3.61zM58.98 16.31c2.214-.033 4.58.798 6.913 2.333v3.61c-2.974-2.445-6.016-3.446-8.525-2.456-3.947 1.56-4.684 13.83-.92 23.768 2.204 5.815 5.91 10.647 9.445 13.49v3c-4.304-2.99-8.668-8.508-11.38-15.668-4.548-12.003-2.792-25.67 1.977-27.553.792-.313 1.627-.485 2.49-.525z"/>
        <path fill="#fff" d="M65.894 18.64c4.59 3.022 9.045 8.778 11.927 16.08 4.98 12.618 3.377 25.073-3.583 27.82-1.677.662-5.166.64-8.342.574v-6.06c2.763 2.22 5.423 3.228 7.177 2.534 5.432-2.143 6.317-12.787 1.98-23.775-2.33-5.91-5.698-10.713-9.156-13.56V18.64zm-4.64 44.44c-3.776.342-10.452-7.8-13.473-16.486-3.16-9.09-2.81-20.064-.42-21.95 1.98-1.96 6.51-6.876 8.845-7.797 2.933-1.157 6.347-.406 9.69 1.794v3.615c-2.975-2.446-6.017-3.447-8.526-2.457-3.948 1.56-4.685 13.83-.92 23.768 2.203 5.815 5.91 10.647 9.444 13.49v6.06c-1.764-.036-3.432-.084-4.64-.035z"/>
        <path fill="#FAAC18" d="M59.745 35.06c3.854 0 6.978 3.123 6.978 6.978 0 3.29-2.277 6.05-5.343 6.785-1.305-1.785-2.48-3.877-3.35-6.17-.824-2.176-1.364-4.5-1.645-6.732.997-.55 2.142-.86 3.36-.86z"/>
    </g>
</symbol>
<symbol id="parent_ask_teacher_icon" viewBox="0 0 100 100">
    <path fill="#E8E8E0" d="M0 0h100v100H0z"/>
    <path fill="#CBC9BD" d="M57.944 30.074L100 71.75V100l-31.38-.292L31.7 60.18l26.134 2.487z"/>
    <path fill="#0EA89E" d="M48.703 24.52c-12.663 0-22.917 10.255-22.917 22.905 0 12.667 10.254 22.934 22.917 22.934 12.65 0 22.917-10.27 22.917-22.936 0-12.65-10.266-22.904-22.917-22.904zm-1.635 35.66c-.535-.475-.8-1.124-.8-1.954 0-.745.257-1.377.762-1.883.51-.51 1.142-.767 1.887-.767.758 0 1.395.257 1.917.767.522.506.783 1.138.783 1.883 0 .84-.27 1.496-.81 1.964-.538.467-1.17.703-1.89.703-.698 0-1.317-.24-1.85-.712zM40.43 43.727c-.408-.758-.61-1.643-.61-2.646 0-1.28.357-2.463 1.073-3.554.72-1.092 1.736-1.955 3.05-2.587s2.832-.953 4.55-.953c1.845 0 3.462.38 4.85 1.138 1.384.758 2.437 1.714 3.162 2.873.725 1.154 1.083 2.296 1.083 3.42 0 .544-.228 1.05-.683 1.517-.455.468-1.015.704-1.68.704-1.122 0-1.89-.67-2.293-2.01-.425-1.28-.948-2.25-1.563-2.907-.616-.657-1.577-.986-2.878-.986-1.117 0-2.026.33-2.73.978-.704.653-1.058 1.453-1.058 2.4 0 .485.113.936.346 1.35.232.416.515.79.856 1.128.337.337.884.84 1.643 1.5.862.76 1.55 1.415 2.06 1.968.51.548.916 1.19 1.224 1.917.308.73.464 1.593.464 2.587 0 .792-.212 1.39-.634 1.795-.42.403-.94.602-1.554.602-1.184 0-1.887-.614-2.115-1.845-.13-.58-.228-.99-.29-1.218-.07-.23-.157-.464-.28-.695-.117-.232-.298-.484-.54-.763-.243-.278-.567-.603-.968-.97-1.458-1.3-2.47-2.228-3.03-2.78-.564-.553-1.048-1.206-1.46-1.964zm0 0"/>
</symbol>
<symbol id="talents_icon" viewBox="0 0 100 100">
    <path fill="#118EC1" d="M0 0h100v100H0z"/>
    <path fill="#18719A" d="M35 77l2.655-1.102 4.054-1.565 1.79-3.5L78.7 29.535 100 64.768V100H52.54L35.69 79.224"/>
    <defs>
        <path id="SVGID_1_" d="M23.297 21.726h58.486v58.668H23.297z"/>
    </defs>
    <clipPath id="SVGID_2_">
        <use xlink:href="#SVGID_1_" overflow="visible"/>
    </clipPath>
    <path fill="#fff" d="M67.72 32.93c-3.517-5.81-9.387-10.003-16.474-10.992-12.807-1.772-23.507 7.8-26.54 20.907-3.825 16.58.503 22.382 8.533 22.617 1.48-1.33 3.303-2.38 5.312-3.006L67.72 32.93zm-23.64-1.094c.433-3.13 3.332-5.324 6.47-4.884 3.13.433 5.324 3.332 4.893 6.46-.44 3.142-3.34 5.334-6.47 4.894-3.138-.43-5.325-3.324-4.893-6.47zM32.243 38.06c.317-2.328 2.468-3.947 4.786-3.624 2.325.317 3.946 2.46 3.63 4.786-.327 2.327-2.478 3.95-4.796 3.623-2.326-.318-3.948-2.46-3.622-4.784zm1.198 19.066c-2.325-.328-3.946-2.47-3.62-4.795.317-2.32 2.468-3.95 4.795-3.623 2.317.317 3.94 2.468 3.622 4.795-.326 2.33-2.476 3.95-4.795 3.626zm0 0" clip-path="url(#SVGID_2_)"/>
    <path fill="#fff" d="M57.672 60.2l.582-.74 21.55-28.092c-.043-.456-.29-1.102-1.1-1.833-1.597-1.443-2.646-.74-2.646-.74L51.008 53.01l-.643.615 7.307 6.575zm-8.655 9.61l.617-.69 6.743-7.5-7.352-6.538-6.69 7.455-.626.698 7.306 6.575zm-4.02-7.67l3.35-3.797c.317-.353.846-.39 1.198-.08l.433.38c.167.147.273.35.29.58.01.228-.062.45-.21.616l-3.36 3.8c-.308.343-.836.385-1.188.07l-.433-.38c-.167-.15-.272-.353-.29-.575-.01-.23.07-.447.21-.616zm2.053 9.653s.38-.602.44-.725l-6.848-6.188c-.158.026-.3.063-.458.097-.01 0-.026.01-.044.01-5.526 1.304-10.965 7.244-5.49 13.9.246.307.66.44 1.04.336.387-.097.678-.417.748-.796.16-.872.476-1.83 1.217-2.53 1.675-1.594 6.39.982 9.396-4.104zm-6.69 1.673c-1.374.053-2.803.107-3.887 1.137-.212.196-.396.414-.563.635-.194.25-.512.37-.82.32-.31-.056-.564-.274-.66-.574-.31-.954-.39-1.974-.09-3.025.177-.616.46-1.18.82-1.703 1.393 1.517 2.61 2.383 4.866 2.178 1.4-.124 2.696-.068 3.896.256-1.102.677-2.31.73-3.56.775zm0 0"/>
</symbol>
<symbol id="talentmenu_icon" viewBox="0 0 62.251 63.298">
    <defs>
        <path id="SVGID_1_" d="M3.765 4.63H62.25v58.668H3.766z"/>
    </defs>
    <clipPath id="SVGID_2_">
        <use xlink:href="#SVGID_1_" overflow="visible"/>
    </clipPath>
    <path d="M48.19 15.833c-3.52-5.81-9.39-10.002-16.476-10.99-12.806-1.773-23.506 7.8-26.54 20.907-3.825 16.58.503 22.382 8.533 22.617 1.48-1.33 3.305-2.38 5.314-3.006l29.17-29.526zM24.547 14.74c.433-3.13 3.332-5.323 6.47-4.883 3.13.433 5.324 3.332 4.893 6.46-.44 3.142-3.34 5.334-6.47 4.894-3.137-.43-5.323-3.322-4.892-6.47zM12.71 20.966c.318-2.33 2.47-3.948 4.787-3.625 2.327.318 3.948 2.46 3.63 4.787-.325 2.327-2.476 3.95-4.794 3.623-2.326-.318-3.948-2.46-3.622-4.785zm1.2 19.066c-2.327-.327-3.948-2.47-3.622-4.794.317-2.32 2.468-3.95 4.795-3.625 2.317.318 3.94 2.47 3.622 4.796-.327 2.33-2.477 3.95-4.795 3.624zm0 0" clip-path="url(#SVGID_2_)"/>
    <path d="M38.14 43.105l.582-.74 21.55-28.092c-.043-.456-.29-1.102-1.1-1.833-1.597-1.443-2.646-.74-2.646-.74l-25.05 24.215-.644.615 7.308 6.575zm-8.655 9.61l.617-.69 6.743-7.5-7.352-6.54-6.69 7.456-.626.7 7.308 6.575zm-4.02-7.67l3.35-3.798c.317-.353.846-.39 1.198-.08l.433.38c.167.147.273.35.29.58.01.228-.062.45-.21.616l-3.36 3.8c-.308.345-.836.387-1.188.07l-.433-.378c-.167-.15-.272-.353-.29-.575-.01-.228.07-.447.21-.616zm2.055 9.653s.378-.602.44-.725l-6.85-6.188c-.158.026-.3.063-.458.097-.01 0-.026.01-.044.01-5.526 1.304-10.965 7.244-5.49 13.9.246.307.66.44 1.04.336.387-.097.678-.417.748-.796.16-.872.476-1.83 1.217-2.53 1.675-1.594 6.39.982 9.396-4.104zm-6.69 1.673c-1.375.055-2.804.11-3.888 1.14-.212.195-.396.413-.563.634-.196.25-.514.37-.82.32-.31-.056-.566-.274-.663-.574-.31-.955-.388-1.975-.088-3.026.175-.614.457-1.18.82-1.7 1.39 1.516 2.607 2.382 4.864 2.177 1.4-.122 2.696-.066 3.896.258-1.1.676-2.31.73-3.56.774zm0 0"/>
</symbol>
<symbol id="points_icon" viewBox="0 0 21 21">
    <circle cx="16.587" cy="14.847" r="4.167"/>
    <circle cx="4.587" cy="14.847" r="4.167"/>
    <circle cx="10.587" cy="5.847" r="4.167"/>
</symbol>
<symbol id="game_icon" viewBox="0 0 64 64">
    <g>
        <path d="M62.1 42.6l-3.7-13.5V29l-1.3-4c-1.7-5.5-6.8-9.2-12.5-9.2-1.3 0-2.6.2-4 .6-1.6.6-3.1 1.4-4.5 2.6h-3.3v-2c0-1.5.6-2.7 1.6-3.5.9-.7 2-1 3.3-1h4c.5 0 2.9-.1 4.6-1.8C47.5 9.6 48 8.1 48 6.1V1.6h-2.5v4.6c0 1.2-.3 2.1-1 2.7-1.1 1-2.8 1-2.8 1h-4.1c-1.9 0-3.6.5-4.9 1.5-1.6 1.3-2.6 3.4-2.6 5.6v2h-2.3c-1.5-1.2-3-2-4.5-2.5-1.4-.4-2.7-.7-4-.7-5.7 0-10.7 3.7-12.5 9.1l-1.3 4v.1L1.9 42.5C-.3 49.3 3 56.3 9.3 58.3c1.1.4 2.4.6 3.8.6 5.2 0 9.7-3.4 11.4-8.7l.8-2.1h13.6l.7 2c1.7 5.3 6.2 8.8 11.4 8.8 1.3 0 2.6-.2 3.7-.6 3-1 5.5-3.1 6.9-5.9 1.5-3 1.7-6.5.5-9.8zm-5 7.6c-.8 1.6-2.2 2.8-3.9 3.4-.7.2-1.4.3-2.2.3-3 0-5.6-2.1-6.7-5.3L43 44.8c-.4-1-1.3-1.7-2.4-1.7H23.5c-1 0-2 .6-2.3 1.6l-1.4 3.8v.1c-1 3.2-3.6 5.3-6.6 5.3-.8 0-1.5-.1-2.2-.3-3.7-1.2-5.6-5.4-4.2-9.6l3.7-13.5 1.3-3.9c1.1-3.4 4.2-5.7 7.7-5.7.8 0 1.6.1 2.5.4 1 .3 2.1.9 3.1 1.9l.1.1c.5.5 1.1.7 1.8.7h10.2c.7 0 1.3-.3 1.8-.7l.2-.2c.9-.9 2-1.5 3.1-1.9.9-.3 1.7-.4 2.5-.4 3.5 0 6.6 2.3 7.7 5.7l1.3 3.9L57.3 44c0 .1 0 .1.1.2.7 2 .6 4.2-.3 6z"/>
        <path d="M26.1 31.3c0-3.7-3-6.8-6.8-6.8s-6.8 3-6.8 6.8 3.1 6.7 6.8 6.7c3.8 0 6.8-3 6.8-6.7zm-6.7 5.5c-3 0-5.5-2.5-5.5-5.5s2.5-5.5 5.5-5.5 5.5 2.5 5.5 5.5-2.4 5.5-5.5 5.5zM44.8 24.6c-3.7 0-6.8 3-6.8 6.8s3 6.7 6.8 6.7c3.7 0 6.8-3 6.8-6.8s-3.2-6.7-6.8-6.7zm0 12.2c-3 0-5.5-2.5-5.5-5.5s2.5-5.5 5.5-5.5 5.5 2.5 5.5 5.5-2.5 5.5-5.5 5.5z"/>
        <circle cx="41.9" cy="31.3" r="1.2"/>
        <circle cx="47.6" cy="31.3" r="1.2"/>
        <circle cx="44.8" cy="34.2" r="1.2"/>
        <circle cx="44.8" cy="28.5" r="1.2"/>
        <path d="M22.2 30.2h-1.6c-.1 0-.1-.1-.1-.1v-1.6c0-.1-.1-.1-.1-.1h-1.9c-.1 0-.1.1-.1.1v1.6c0 .1-.1.1-.1.1h-1.6c-.1 0-.1.1-.1.1v1.9c0 .1.1.1.1.1h1.6c.1 0 .1.1.1.1V34c0 .1.1.1.1.1h1.9c.1 0 .1-.1.1-.1v-1.6c0-.1.1-.1.1-.1h1.6c.1 0 .1-.1.1-.1v-1.9c.1 0 0-.1-.1-.1zM30 39h-2.6c-.4 0-.8.4-.8.8s.4.8.8.8H30c.4 0 .8-.4.8-.8s-.4-.8-.8-.8zM36.8 39h-2.6c-.4 0-.8.4-.8.8s.4.8.8.8h2.6c.4 0 .8-.4.8-.8s-.4-.8-.8-.8z"/>
    </g>
</symbol>
<symbol id="badges" viewBox="0 0 40.5 40.5">
    <path d="M33 6.3l-7.1-4.1c-3.4-2-7.9-2-11.3 0L7.5 6.3C4 8.3 1.9 12 1.9 16v8.3c0 4 2.1 7.7 5.6 9.7l7.1 4.1c1.7 1 3.7 1.5 5.7 1.5s3.9-.5 5.7-1.5l7.1-4.1c3.5-2 5.6-5.7 5.6-9.7V16c-.1-3.9-2.3-7.6-5.7-9.7zm2.5 18.3c0 2.8-1.5 5.4-3.9 6.8l-7.4 4.3c-2.4 1.4-5.5 1.4-8 0l-7.4-4.3C6.5 30 5 27.4 5 24.6v-8.7c0-2.8 1.5-5.4 3.9-6.8l7.4-4.3c1.2-.7 2.6-1.1 4-1.1s2.8.4 4 1.1L31.6 9c2.4 1.4 3.9 4 3.9 6.8v8.8z"/>
    <path d="M23.4 16l-3.1-6.4-3.2 6.4-7 1 5.1 5-1.2 7 6.3-3.3 6.3 3.3-1.3-7 5.1-5"/>
</symbol>
</defs>
</svg>